<svg width="22" height="22" viewBox="0 0 22 22" fill="none" xmlns="http://www.w3.org/2000/svg">
<path d="M16.548 10.9186L16.5052 10.9495L16.4917 10.9593L16.4007 11.025C16.415 11.0447 16.4378 11.0663 16.4711 11.0819C16.5049 11.0979 16.545 11.1054 16.5866 11.101C16.6279 11.0966 16.6629 11.0812 16.689 11.0617L16.5975 10.9391L16.594 10.9343L16.5702 10.9025L16.5646 10.8949L16.5613 10.8905L16.548 10.9186ZM16.548 10.9186L16.5359 10.9443L16.548 10.9186ZM16.5 12.2652V12.2654C16.5 13.9363 15.9081 15.5289 14.8693 16.6949C13.8322 17.8589 12.4388 18.5 11 18.5C9.56117 18.5 8.16779 17.8589 7.13069 16.6949C6.09191 15.5289 5.5 13.9363 5.5 12.2654L5.5 12.2649C5.49927 11.4381 5.64614 10.6207 5.93081 9.86134C6.17501 9.20994 6.51581 8.61395 6.93611 8.09799C7.18888 8.7404 7.5266 9.33925 7.9395 9.87402C8.04451 10.01 8.21199 10.0826 8.38303 10.0662C8.55406 10.0497 8.70469 9.94665 8.78191 9.79316C9.27797 8.8072 9.55749 7.7065 9.60008 6.58086C9.63862 5.56263 9.48242 4.54702 9.14202 3.60151C10.9436 4.20886 12.2639 5.50029 13.1234 6.9741C14.0423 8.5498 14.4064 10.2871 14.2857 11.5195C14.269 11.69 14.3408 11.8573 14.4759 11.9626C14.6111 12.0679 14.7908 12.0967 14.9521 12.0389C15.4736 11.8518 15.9691 11.59 16.4265 11.2614C16.4755 11.5929 16.5001 11.9286 16.5 12.2652Z" stroke="white" stroke-linecap="round" stroke-linejoin="round"/>
</svg>
