<svg width="180" height="180" viewBox="0 0 180 180" fill="none" xmlns="http://www.w3.org/2000/svg">
<g filter="url(#filter0_f_11848_181115)">
<ellipse cx="90" cy="90.5" rx="36" ry="27.5" transform="rotate(180 90 90.5)" fill="url(#paint0_linear_11848_181115)" fill-opacity="0.25"/>
</g>
<path d="M96.3191 63.3077C96.2729 63.3067 96.227 63.2992 96.1829 63.2856L45.3432 47.5927C44.7491 47.4705 44.1365 47.4691 43.5416 47.5885C42.9395 47.7095 42.3679 47.9518 41.8616 48.3009C41.3552 48.65 40.9246 49.0988 40.5958 49.62C40.2671 50.141 40.047 50.7236 39.949 51.3326C39.9489 51.3329 39.9489 51.3332 39.9489 51.3334L29.5585 117.246L29.5582 117.248C29.463 117.84 29.4848 118.444 29.6224 119.028C29.76 119.611 30.0107 120.161 30.36 120.647L29.9541 120.939L30.36 120.647C30.7094 121.132 31.1506 121.544 31.6584 121.858C32.1458 122.16 32.6853 122.366 33.2485 122.467L44.9185 120.921C50.771 120.145 56.7111 120.347 62.4977 121.519L62.5024 121.52C68.3558 122.763 73.9208 125.11 78.9016 128.437C78.9023 128.438 78.903 128.438 78.9037 128.439L81.6774 130.253L81.6775 130.253C82.6936 130.918 83.8339 131.368 85.0287 131.576C86.2236 131.784 87.4481 131.745 88.6277 131.462L88.6278 131.462L93.6047 130.27C93.6056 130.27 93.6065 130.27 93.6074 130.27C97.5465 129.277 101.6 128.82 105.661 128.91L105.667 128.91C113.18 129.165 120.557 131 127.321 134.294C127.321 134.294 127.321 134.295 127.321 134.295L137.912 139.452C139.078 139.623 140.266 139.332 141.223 138.638C142.2 137.932 142.857 136.864 143.051 135.67L96.3191 63.3077ZM96.3191 63.3077L149.496 64.5022C150.098 64.5737 150.68 64.7652 151.207 65.0658C151.74 65.3699 152.207 65.7795 152.579 66.2698C152.95 66.7615 153.217 67.3236 153.366 67.9223C153.514 68.5213 153.54 69.1443 153.441 69.7537L153.441 69.7555L143.051 135.668L96.3191 63.3077Z" fill="url(#paint1_linear_11848_181115)" stroke="url(#paint2_linear_11848_181115)" stroke-linecap="round" stroke-linejoin="round"/>
<g filter="url(#filter1_b_11848_181115)">
<path d="M85 125C99.2414 120.576 114.325 119.503 129.056 121.866L134.207 122.692C134.865 122.798 135.537 122.774 136.185 122.622C136.834 122.47 137.446 122.193 137.986 121.806C138.526 121.419 138.985 120.93 139.334 120.367C139.684 119.804 139.919 119.178 140.025 118.525L148.935 63.827C149.15 62.5081 148.828 61.1586 148.04 60.0751C147.253 58.9917 146.064 58.263 144.735 58.0491L139.585 57.2224C124.853 54.8592 109.77 55.9323 95.5287 60.3567L85 125Z" fill="url(#paint3_linear_11848_181115)"/>
<path d="M129.135 121.372C114.594 119.039 99.7105 120.038 85.6228 124.286L95.9724 60.743C110.053 56.418 124.952 55.3814 139.506 57.7161C139.506 57.7161 139.506 57.7161 139.506 57.7161L144.656 58.5428C145.855 58.7357 146.926 59.3931 147.636 60.3691C148.345 61.3449 148.635 62.5597 148.442 63.7466C148.442 63.7467 148.442 63.7468 148.442 63.7468L139.532 118.445L139.532 118.445C139.436 119.033 139.225 119.596 138.91 120.103C138.595 120.61 138.182 121.05 137.695 121.399C137.208 121.748 136.656 121.998 136.071 122.135C135.486 122.273 134.88 122.294 134.286 122.199L134.286 122.199L129.135 121.372L129.056 121.866L129.135 121.372Z" stroke="url(#paint4_linear_11848_181115)"/>
</g>
<g filter="url(#filter2_b_11848_181115)">
<path d="M85.6037 125C73.6452 116.376 59.8465 110.659 45.3004 108.303L40.2146 107.479C39.5647 107.374 38.9417 107.142 38.3814 106.797C37.821 106.451 37.3342 105.997 36.9488 105.463C36.5633 104.928 36.2868 104.323 36.135 103.681C35.9832 103.04 35.9592 102.374 36.0642 101.723L44.8619 47.2172C44.9668 46.5666 45.1986 45.9429 45.5442 45.3821C45.8897 44.8212 46.3422 44.334 46.8758 43.9484C47.4093 43.5627 48.0135 43.2862 48.6538 43.1346C49.2941 42.9829 49.9579 42.9592 50.6073 43.0647L55.6932 43.8867C70.2406 46.2439 84.0405 51.9617 96 60.5873L85.6037 125Z" fill="url(#paint5_linear_11848_181115)"/>
<path d="M95.4571 60.8129L85.2385 124.124C73.3699 115.717 59.7373 110.135 45.3804 107.809L40.2945 106.986L40.2941 106.985C39.7092 106.891 39.1485 106.683 38.6441 106.371C38.1396 106.06 37.7014 105.652 37.3543 105.17C37.0073 104.689 36.7583 104.144 36.6216 103.566C36.4849 102.988 36.4632 102.389 36.5578 101.803C36.5578 101.803 36.5578 101.803 36.5578 101.803L45.3555 47.2969L45.3555 47.2968C45.4499 46.7109 45.6587 46.1493 45.9698 45.6443C46.281 45.1393 46.6883 44.7007 47.1686 44.3536C47.6489 44.0065 48.1927 43.7576 48.769 43.6211C49.3453 43.4846 49.9427 43.4633 50.5272 43.5582L50.5276 43.5583L55.6132 44.3802C55.6133 44.3802 55.6134 44.3803 55.6134 44.3803C69.9826 46.7086 83.6186 52.3331 95.4571 60.8129Z" stroke="url(#paint6_linear_11848_181115)" stroke-linecap="round" stroke-linejoin="round"/>
</g>
<path d="M55 62C66.4016 62.6098 77.4357 66.0579 87 72" stroke="#5D9292" stroke-linecap="round" stroke-linejoin="round"/>
<path d="M54 72C65.0454 72.6108 75.7345 76.0589 85 82" stroke="#5D9292" stroke-opacity="0.75" stroke-linecap="round" stroke-linejoin="round"/>
<path d="M52 82C63.0455 82.6712 73.7347 86.4642 83 93" stroke="#5D9292" stroke-opacity="0.5" stroke-linecap="round" stroke-linejoin="round"/>
<path d="M50 93C61.4017 93.6087 72.4359 97.0569 82 103" stroke="#5D9292" stroke-opacity="0.25" stroke-linecap="round" stroke-linejoin="round"/>
<path d="M136 74C125.223 70.1735 113.844 70.0046 103 73.51" stroke="#5D9292" stroke-linecap="round" stroke-linejoin="round"/>
<path d="M134 84C123.223 81.449 111.844 81.3364 101 83.6733" stroke="#5D9292" stroke-opacity="0.75" stroke-linecap="round" stroke-linejoin="round"/>
<path d="M133 95C121.897 91.1743 110.173 91.0046 99 94.5079" stroke="#5D9292" stroke-opacity="0.5" stroke-linecap="round" stroke-linejoin="round"/>
<path d="M131 105C120.223 101.174 108.844 101.005 98 104.51" stroke="#5D9292" stroke-opacity="0.25" stroke-linecap="round" stroke-linejoin="round"/>
<defs>
<filter id="filter0_f_11848_181115" x="2" y="11" width="176" height="159" filterUnits="userSpaceOnUse" color-interpolation-filters="sRGB">
<feFlood flood-opacity="0" result="BackgroundImageFix"/>
<feBlend mode="normal" in="SourceGraphic" in2="BackgroundImageFix" result="shape"/>
<feGaussianBlur stdDeviation="26" result="effect1_foregroundBlur_11848_181115"/>
</filter>
<filter id="filter1_b_11848_181115" x="81" y="52" width="72" height="77" filterUnits="userSpaceOnUse" color-interpolation-filters="sRGB">
<feFlood flood-opacity="0" result="BackgroundImageFix"/>
<feGaussianBlur in="BackgroundImageFix" stdDeviation="2"/>
<feComposite in2="SourceAlpha" operator="in" result="effect1_backgroundBlur_11848_181115"/>
<feBlend mode="normal" in="SourceGraphic" in2="effect1_backgroundBlur_11848_181115" result="shape"/>
</filter>
<filter id="filter2_b_11848_181115" x="32" y="39" width="68" height="90" filterUnits="userSpaceOnUse" color-interpolation-filters="sRGB">
<feFlood flood-opacity="0" result="BackgroundImageFix"/>
<feGaussianBlur in="BackgroundImageFix" stdDeviation="2"/>
<feComposite in2="SourceAlpha" operator="in" result="effect1_backgroundBlur_11848_181115"/>
<feBlend mode="normal" in="SourceGraphic" in2="effect1_backgroundBlur_11848_181115" result="shape"/>
</filter>
<linearGradient id="paint0_linear_11848_181115" x1="79" y1="118" x2="154.852" y2="78.1649" gradientUnits="userSpaceOnUse">
<stop stop-color="#E36CFD"/>
<stop offset="0.280832" stop-color="#0058FB"/>
<stop offset="0.5" stop-color="#2EC0FB"/>
<stop offset="0.6875" stop-color="#14F7EF"/>
<stop offset="0.8438" stop-color="#F9E033"/>
<stop offset="0.9844" stop-color="#FAA143"/>
</linearGradient>
<linearGradient id="paint1_linear_11848_181115" x1="83.643" y1="5.66751" x2="111.04" y2="115.308" gradientUnits="userSpaceOnUse">
<stop stop-color="#5FF088"/>
<stop offset="1" stop-color="#1E2020" stop-opacity="0"/>
</linearGradient>
<linearGradient id="paint2_linear_11848_181115" x1="91.5" y1="47" x2="82.5" y2="124.5" gradientUnits="userSpaceOnUse">
<stop offset="1" stop-color="white" stop-opacity="0"/>
</linearGradient>
<linearGradient id="paint3_linear_11848_181115" x1="117" y1="51.372" x2="110.33" y2="105.598" gradientUnits="userSpaceOnUse">
<stop stop-color="#53ABAC"/>
<stop offset="1" stop-color="#1E2020" stop-opacity="0"/>
</linearGradient>
<linearGradient id="paint4_linear_11848_181115" x1="117" y1="56" x2="104.5" y2="129.5" gradientUnits="userSpaceOnUse">
<stop stop-color="white" stop-opacity="0.26"/>
<stop offset="1" stop-color="white" stop-opacity="0"/>
</linearGradient>
<linearGradient id="paint5_linear_11848_181115" x1="66" y1="37.5" x2="56.0418" y2="101.365" gradientUnits="userSpaceOnUse">
<stop stop-color="#53ABAC"/>
<stop offset="1" stop-color="#1E2020" stop-opacity="0"/>
</linearGradient>
<linearGradient id="paint6_linear_11848_181115" x1="66" y1="43" x2="66" y2="125" gradientUnits="userSpaceOnUse">
<stop stop-color="white" stop-opacity="0.26"/>
<stop offset="1" stop-color="white" stop-opacity="0"/>
</linearGradient>
</defs>
</svg>
