<svg width="22" height="22" viewBox="0 0 22 22" fill="none" xmlns="http://www.w3.org/2000/svg">
<path d="M17 12.2654C17 14.0515 16.3679 15.7645 15.2426 17.0275C14.1174 18.2905 12.5913 19 11 19C9.4087 19 7.88258 18.2905 6.75736 17.0275C5.63214 15.7645 5 14.0515 5 12.2654C4.99922 11.3795 5.15652 10.5024 5.46263 9.68583C5.76873 8.86929 6.21743 8.12982 6.78227 7.51108C6.81998 7.46938 6.86643 7.439 6.91733 7.42273C6.96824 7.40645 7.02198 7.40479 7.0736 7.41792C7.12523 7.43104 7.17308 7.45852 7.21278 7.49782C7.25247 7.53713 7.28272 7.58701 7.30075 7.64287C7.54476 8.34651 7.89469 8.99785 8.33526 9.56844C8.79826 8.64816 9.06048 7.61788 9.10044 6.56195C9.1404 5.50602 8.95696 4.45449 8.56515 3.49345C8.54008 3.43315 8.531 3.36603 8.53899 3.30009C8.54698 3.23415 8.5717 3.17219 8.6102 3.12159C8.64871 3.07098 8.69936 3.03388 8.75613 3.01471C8.8129 2.99554 8.87339 2.9951 8.93038 3.01345C13.1945 4.20236 15.0484 8.863 14.7833 11.5682C15.3579 11.3621 15.9001 11.056 16.39 10.6609C16.433 10.6289 16.4823 10.6093 16.5336 10.6038C16.5849 10.5984 16.6366 10.6072 16.6841 10.6296C16.7316 10.652 16.7735 10.6872 16.806 10.7321C16.8384 10.777 16.8605 10.8303 16.8702 10.8871C16.9566 11.3401 17.0001 11.8021 17 12.2654Z" fill="url(#paint0_linear_16592_9018)"/>
<defs>
<linearGradient id="paint0_linear_16592_9018" x1="3" y1="3" x2="16.357" y2="7.91782" gradientUnits="userSpaceOnUse">
<stop stop-color="#DDD138"/>
<stop offset="1" stop-color="#E92026"/>
</linearGradient>
</defs>
</svg>
