<svg width="180" height="180" viewBox="0 0 180 180" fill="none" xmlns="http://www.w3.org/2000/svg">
<g filter="url(#filter0_f_14852_21560)">
<ellipse cx="90" cy="89.5" rx="36" ry="27.5" transform="rotate(180 90 89.5)" fill="url(#paint0_linear_14852_21560)" fill-opacity="0.25"/>
</g>
<mask id="path-2-inside-1_14852_21560" fill="white">
<path d="M106.618 100.305L113.145 106.833L106.837 113.141L100.311 106.615"/>
</mask>
<path d="M106.618 100.305L113.145 106.833L106.837 113.141L100.311 106.615" fill="url(#paint1_linear_14852_21560)"/>
<path d="M107.325 99.5976C106.934 99.2071 106.301 99.207 105.91 99.5975C105.52 99.988 105.52 100.621 105.91 101.012L107.325 99.5976ZM113.145 106.833L113.852 107.54C114.242 107.149 114.242 106.516 113.852 106.126L113.145 106.833ZM106.837 113.141L106.129 113.848C106.317 114.035 106.571 114.141 106.837 114.141C107.102 114.141 107.356 114.035 107.544 113.848L106.837 113.141ZM101.018 105.908C100.627 105.517 99.994 105.517 99.6034 105.908C99.2129 106.298 99.2129 106.931 99.6034 107.322L101.018 105.908ZM105.91 101.012L112.437 107.54L113.852 106.126L107.325 99.5976L105.91 101.012ZM112.437 106.126L106.129 112.434L107.544 113.848L113.852 107.54L112.437 106.126ZM107.544 112.434L101.018 105.908L99.6034 107.322L106.129 113.848L107.544 112.434Z" fill="url(#paint2_linear_14852_21560)" mask="url(#path-2-inside-1_14852_21560)"/>
<path d="M127.506 119.798L127.506 119.798C128.527 120.82 129.101 122.205 129.101 123.649C129.101 125.093 128.527 126.478 127.506 127.499C126.484 128.521 125.099 129.094 123.655 129.094C122.211 129.094 120.826 128.521 119.805 127.499L119.805 127.499L107.192 114.891L107.191 114.891C107.1 114.8 107.027 114.691 106.977 114.571C106.928 114.452 106.902 114.323 106.902 114.194C106.902 114.064 106.928 113.936 106.977 113.817C107.027 113.697 107.1 113.588 107.191 113.497L107.192 113.496L113.498 107.183C113.589 107.092 113.698 107.019 113.818 106.97C113.937 106.92 114.065 106.895 114.195 106.895C114.324 106.895 114.452 106.92 114.572 106.97C114.691 107.019 114.8 107.092 114.892 107.183L114.892 107.183L127.506 119.798Z" fill="url(#paint3_linear_14852_21560)" stroke="url(#paint4_linear_14852_21560)" stroke-linecap="round" stroke-linejoin="round"/>
<mask id="path-5-inside-2_14852_21560" fill="white">
<path fill-rule="evenodd" clip-rule="evenodd" d="M52.7259 93.619C51.1678 89.8117 50.3776 85.7339 50.4009 81.6201C50.3776 77.5064 51.1678 73.4286 52.7259 69.6213C54.284 65.814 56.5794 62.3522 59.4801 59.4351C62.3808 56.518 65.8295 54.203 69.6279 52.6233C73.4263 51.0437 77.4996 50.2305 81.6134 50.2305C85.7272 50.2305 89.8004 51.0437 93.5989 52.6233C97.3973 54.203 100.846 56.518 103.747 59.4351C106.647 62.3522 108.943 65.814 110.501 69.6213C112.059 73.4286 112.849 77.5064 112.826 81.6201C112.849 85.7339 112.059 89.8117 110.501 93.619C108.943 97.4263 106.647 100.888 103.747 103.805C100.846 106.722 97.3973 109.037 93.5989 110.617C89.8004 112.197 85.7272 113.01 81.6134 113.01C77.4996 113.01 73.4263 112.197 69.6279 110.617C65.8295 109.037 62.3808 106.722 59.4801 103.805C56.5794 100.888 54.284 97.4263 52.7259 93.619ZM85.5557 105.847C82.3712 106.358 79.1171 106.236 75.9798 105.488C72.8391 104.754 69.8739 103.408 67.2541 101.527C64.6344 99.6458 62.4114 97.2662 60.7125 94.5246C59.0137 91.783 57.8723 88.7332 57.3538 85.5498C56.8353 82.3665 56.9498 79.1121 57.6907 75.9731C58.4317 72.8341 59.7846 69.872 61.6719 67.2566C63.5592 64.6412 65.9439 62.4237 68.6894 60.7312C71.4349 59.0386 74.4874 57.9043 77.6719 57.3931C80.8564 56.8819 84.1105 57.0039 87.2478 57.7521C90.3885 58.4858 93.3537 59.8319 95.9735 61.7132C98.5933 63.5945 100.816 65.974 102.515 68.7157C104.214 71.4573 105.355 74.5071 105.874 77.6904C106.392 80.8737 106.278 84.1281 105.537 87.2671C104.796 90.4061 103.443 93.3682 101.556 95.9836C99.6684 98.5991 97.2837 100.817 94.5382 102.509C91.7927 104.202 88.7403 105.336 85.5557 105.847Z"/>
</mask>
<path fill-rule="evenodd" clip-rule="evenodd" d="M52.7259 93.619C51.1678 89.8117 50.3776 85.7339 50.4009 81.6201C50.3776 77.5064 51.1678 73.4286 52.7259 69.6213C54.284 65.814 56.5794 62.3522 59.4801 59.4351C62.3808 56.518 65.8295 54.203 69.6279 52.6233C73.4263 51.0437 77.4996 50.2305 81.6134 50.2305C85.7272 50.2305 89.8004 51.0437 93.5989 52.6233C97.3973 54.203 100.846 56.518 103.747 59.4351C106.647 62.3522 108.943 65.814 110.501 69.6213C112.059 73.4286 112.849 77.5064 112.826 81.6201C112.849 85.7339 112.059 89.8117 110.501 93.619C108.943 97.4263 106.647 100.888 103.747 103.805C100.846 106.722 97.3973 109.037 93.5989 110.617C89.8004 112.197 85.7272 113.01 81.6134 113.01C77.4996 113.01 73.4263 112.197 69.6279 110.617C65.8295 109.037 62.3808 106.722 59.4801 103.805C56.5794 100.888 54.284 97.4263 52.7259 93.619ZM85.5557 105.847C82.3712 106.358 79.1171 106.236 75.9798 105.488C72.8391 104.754 69.8739 103.408 67.2541 101.527C64.6344 99.6458 62.4114 97.2662 60.7125 94.5246C59.0137 91.783 57.8723 88.7332 57.3538 85.5498C56.8353 82.3665 56.9498 79.1121 57.6907 75.9731C58.4317 72.8341 59.7846 69.872 61.6719 67.2566C63.5592 64.6412 65.9439 62.4237 68.6894 60.7312C71.4349 59.0386 74.4874 57.9043 77.6719 57.3931C80.8564 56.8819 84.1105 57.0039 87.2478 57.7521C90.3885 58.4858 93.3537 59.8319 95.9735 61.7132C98.5933 63.5945 100.816 65.974 102.515 68.7157C104.214 71.4573 105.355 74.5071 105.874 77.6904C106.392 80.8737 106.278 84.1281 105.537 87.2671C104.796 90.4061 103.443 93.3682 101.556 95.9836C99.6684 98.5991 97.2837 100.817 94.5382 102.509C91.7927 104.202 88.7403 105.336 85.5557 105.847Z" fill="url(#paint5_linear_14852_21560)"/>
<path d="M50.4009 81.6201L51.4009 81.6258L51.4009 81.6145L50.4009 81.6201ZM52.7259 93.619L51.8004 93.9977L52.7259 93.619ZM52.7259 69.6213L51.8004 69.2425L52.7259 69.6213ZM59.4801 59.4351L58.771 58.73L59.4801 59.4351ZM69.6279 52.6233L69.2439 51.7L69.6279 52.6233ZM110.501 69.6213L111.426 69.2425L110.501 69.6213ZM112.826 81.6201L111.826 81.6145L111.826 81.6258L112.826 81.6201ZM69.6279 110.617L69.2439 111.54L69.6279 110.617ZM59.4801 103.805L58.771 104.51L59.4801 103.805ZM75.9798 105.488L76.2118 104.515L76.2073 104.514L75.9798 105.488ZM85.5557 105.847L85.3972 104.86L85.5557 105.847ZM67.2541 101.527L67.8374 100.715L67.2541 101.527ZM61.6719 67.2566L60.861 66.6714H60.861L61.6719 67.2566ZM68.6894 60.7312L68.1647 59.8799L68.6894 60.7312ZM87.2478 57.7521L87.0158 58.7248L87.0203 58.7259L87.2478 57.7521ZM95.9735 61.7132L96.5568 60.9009L95.9735 61.7132ZM102.515 68.7157L101.665 69.2424V69.2424L102.515 68.7157ZM49.4009 81.6145C49.3769 85.86 50.1923 90.0684 51.8004 93.9977L53.6514 93.2402C52.1432 89.5549 51.3783 85.6078 51.4009 81.6258L49.4009 81.6145ZM51.8004 69.2425C50.1923 73.1718 49.3769 77.3803 49.4009 81.6258L51.4009 81.6145C51.3783 77.6325 52.1432 73.6854 53.6514 70.0001L51.8004 69.2425ZM58.771 58.73C55.7774 61.7406 53.4085 65.3132 51.8004 69.2425L53.6514 70.0001C55.1596 66.3147 57.3815 62.9639 60.1892 60.1402L58.771 58.73ZM69.2439 51.7C65.3238 53.3303 61.7646 55.7194 58.771 58.73L60.1892 60.1402C62.9969 57.3165 66.3351 55.0757 70.0119 53.5467L69.2439 51.7ZM81.6134 49.2305C77.3678 49.2305 73.164 50.0697 69.2439 51.7L70.0119 53.5467C73.6886 52.0176 77.6314 51.2305 81.6134 51.2305V49.2305ZM93.9829 51.7C90.0627 50.0697 85.859 49.2305 81.6134 49.2305V51.2305C85.5954 51.2305 89.5382 52.0176 93.2149 53.5467L93.9829 51.7ZM104.456 58.73C101.462 55.7194 97.903 53.3303 93.9829 51.7L93.2149 53.5467C96.8916 55.0757 100.23 57.3165 103.038 60.1402L104.456 58.73ZM111.426 69.2425C109.818 65.3132 107.449 61.7406 104.456 58.73L103.038 60.1402C105.845 62.9639 108.067 66.3147 109.575 70.0001L111.426 69.2425ZM113.826 81.6258C113.85 77.3803 113.034 73.1718 111.426 69.2425L109.575 70.0001C111.084 73.6854 111.848 77.6325 111.826 81.6145L113.826 81.6258ZM111.426 93.9977C113.034 90.0684 113.85 85.86 113.826 81.6145L111.826 81.6258C111.848 85.6078 111.084 89.5549 109.575 93.2402L111.426 93.9977ZM104.456 104.51C107.449 101.5 109.818 97.927 111.426 93.9977L109.575 93.2402C108.067 96.9256 105.845 100.276 103.038 103.1L104.456 104.51ZM93.9829 111.54C97.903 109.91 101.462 107.521 104.456 104.51L103.038 103.1C100.23 105.924 96.8916 108.165 93.2149 109.694L93.9829 111.54ZM81.6134 114.01C85.859 114.01 90.0627 113.171 93.9829 111.54L93.2149 109.694C89.5381 111.223 85.5954 112.01 81.6134 112.01V114.01ZM69.2439 111.54C73.164 113.171 77.3678 114.01 81.6134 114.01V112.01C77.6314 112.01 73.6886 111.223 70.0119 109.694L69.2439 111.54ZM58.771 104.51C61.7646 107.521 65.3238 109.91 69.2439 111.54L70.0119 109.694C66.3351 108.165 62.9969 105.924 60.1892 103.1L58.771 104.51ZM51.8004 93.9977C53.4085 97.927 55.7774 101.5 58.771 104.51L60.1892 103.1C57.3815 100.276 55.1596 96.9256 53.6514 93.2402L51.8004 93.9977ZM75.7478 106.461C79.0131 107.24 82.3999 107.367 85.7142 106.834L85.3972 104.86C82.3426 105.35 79.2212 105.233 76.2118 104.515L75.7478 106.461ZM66.6709 102.339C69.3975 104.297 72.4835 105.698 75.7523 106.462L76.2073 104.514C73.1946 103.811 70.3504 102.519 67.8374 100.715L66.6709 102.339ZM59.8625 95.0513C61.6306 97.9047 63.9442 100.381 66.6709 102.339L67.8374 100.715C65.3245 98.9102 63.1922 96.6277 61.5626 93.9979L59.8625 95.0513ZM56.3668 85.7106C56.9065 89.0238 58.0944 92.1979 59.8625 95.0513L61.5626 93.9979C59.933 91.368 58.8382 88.4426 58.3408 85.3891L56.3668 85.7106ZM56.7175 75.7434C55.9463 79.0104 55.8271 82.3975 56.3668 85.7106L58.3408 85.3891C57.8434 82.3355 57.9532 79.2139 58.664 76.2028L56.7175 75.7434ZM60.861 66.6714C58.8967 69.3935 57.4886 72.4764 56.7175 75.7434L58.664 76.2028C59.3747 73.1918 60.6724 70.3506 62.4828 67.8418L60.861 66.6714ZM68.1647 59.8799C65.3072 61.6415 62.8252 63.9494 60.861 66.6714L62.4828 67.8418C64.2932 65.333 66.5806 63.2059 69.2142 61.5824L68.1647 59.8799ZM77.5134 56.4058C74.199 56.9378 71.0221 58.1184 68.1647 59.8799L69.2142 61.5824C71.8478 59.9589 74.7757 58.8708 77.8304 58.3805L77.5134 56.4058ZM87.4798 56.7794C84.2146 56.0007 80.8278 55.8737 77.5134 56.4058L77.8304 58.3805C80.8851 57.8901 84.0065 58.0072 87.0158 58.7248L87.4798 56.7794ZM96.5568 60.9009C93.8302 58.9429 90.7441 57.542 87.4753 56.7783L87.0203 58.7259C90.033 59.4297 92.8772 60.7209 95.3902 62.5254L96.5568 60.9009ZM103.365 68.1889C101.597 65.3355 99.2834 62.8589 96.5568 60.9009L95.3902 62.5254C97.9031 64.33 100.035 66.6126 101.665 69.2424L103.365 68.1889ZM106.861 77.5296C106.321 74.2165 105.133 71.0423 103.365 68.1889L101.665 69.2424C103.295 71.8722 104.389 74.7976 104.887 77.8512L106.861 77.5296ZM106.51 87.4969C107.281 84.2298 107.4 80.8428 106.861 77.5296L104.887 77.8512C105.384 80.9047 105.274 84.0264 104.564 87.0374L106.51 87.4969ZM102.367 96.5688C104.331 93.8467 105.739 90.7639 106.51 87.4969L104.564 87.0374C103.853 90.0484 102.555 92.8897 100.745 95.3985L102.367 96.5688ZM95.063 103.36C97.9204 101.599 100.402 99.2909 102.367 96.5688L100.745 95.3985C98.9345 97.9073 96.647 100.034 94.0134 101.658L95.063 103.36ZM85.7142 106.834C89.0286 106.302 92.2055 105.122 95.063 103.36L94.0134 101.658C91.3799 103.281 88.4519 104.369 85.3972 104.86L85.7142 106.834Z" fill="url(#paint6_linear_14852_21560)" mask="url(#path-5-inside-2_14852_21560)"/>
<defs>
<filter id="filter0_f_14852_21560" x="2" y="10" width="176" height="159" filterUnits="userSpaceOnUse" color-interpolation-filters="sRGB">
<feFlood flood-opacity="0" result="BackgroundImageFix"/>
<feBlend mode="normal" in="SourceGraphic" in2="BackgroundImageFix" result="shape"/>
<feGaussianBlur stdDeviation="26" result="effect1_foregroundBlur_14852_21560"/>
</filter>
<linearGradient id="paint0_linear_14852_21560" x1="79" y1="117" x2="154.852" y2="77.1649" gradientUnits="userSpaceOnUse">
<stop stop-color="#E36CFD"/>
<stop offset="0.280832" stop-color="#0058FB"/>
<stop offset="0.5" stop-color="#2EC0FB"/>
<stop offset="0.6875" stop-color="#14F7EF"/>
<stop offset="0.8438" stop-color="#F9E033"/>
<stop offset="0.9844" stop-color="#FAA143"/>
</linearGradient>
<linearGradient id="paint1_linear_14852_21560" x1="104.445" y1="101.9" x2="127.946" y2="136.247" gradientUnits="userSpaceOnUse">
<stop stop-color="#53ABAC"/>
<stop offset="1" stop-color="#1E2020" stop-opacity="0"/>
</linearGradient>
<linearGradient id="paint2_linear_14852_21560" x1="106.728" y1="95.6869" x2="106.728" y2="113.141" gradientUnits="userSpaceOnUse">
<stop stop-color="white" stop-opacity="0.26"/>
<stop offset="0.713542" stop-color="white" stop-opacity="0"/>
</linearGradient>
<linearGradient id="paint3_linear_14852_21560" x1="113.875" y1="109.278" x2="119.736" y2="126.773" gradientUnits="userSpaceOnUse">
<stop stop-color="#53ABAC"/>
<stop offset="1" stop-color="#1E2020" stop-opacity="0"/>
</linearGradient>
<linearGradient id="paint4_linear_14852_21560" x1="118.001" y1="98.0484" x2="118.001" y2="129.594" gradientUnits="userSpaceOnUse">
<stop stop-color="white" stop-opacity="0.26"/>
<stop offset="0.713542" stop-color="white" stop-opacity="0"/>
</linearGradient>
<linearGradient id="paint5_linear_14852_21560" x1="70.5092" y1="58.0332" x2="133.926" y2="128.523" gradientUnits="userSpaceOnUse">
<stop stop-color="#53ABAC"/>
<stop offset="1" stop-color="#1E2020" stop-opacity="0"/>
</linearGradient>
<linearGradient id="paint6_linear_14852_21560" x1="81.6134" y1="27.6456" x2="81.6134" y2="113.01" gradientUnits="userSpaceOnUse">
<stop stop-color="white" stop-opacity="0.26"/>
<stop offset="0.713542" stop-color="white" stop-opacity="0"/>
</linearGradient>
</defs>
</svg>
