<svg width="181" height="180" viewBox="0 0 181 180" fill="none" xmlns="http://www.w3.org/2000/svg">
<g filter="url(#filter0_f_13297_5754)">
<ellipse cx="90.1289" cy="89.5508" rx="36" ry="27.5" fill="url(#paint0_linear_13297_5754)" fill-opacity="0.5"/>
</g>
<mask id="path-2-inside-1_13297_5754" fill="white">
<path d="M75.6608 103.5H55.1516C53.8555 103.569 52.6214 104.076 51.6524 104.94L36.0446 120.548C35.4906 121.1 34.7855 121.476 34.0183 121.628C33.251 121.779 32.456 121.701 31.7334 121.401C31.0108 121.102 30.3931 120.595 29.9581 119.945C29.5231 119.295 29.2904 118.531 29.2892 117.749V105.547C29.2864 105.004 29.0693 104.485 28.6854 104.101C28.3014 103.718 27.7815 103.502 27.239 103.5H19.0256C17.7745 103.5 16.5355 103.254 15.3796 102.775C14.2237 102.296 13.1734 101.595 12.2888 100.71C11.4042 99.8251 10.7026 98.7747 10.2241 97.6187C9.74558 96.4627 9.49953 95.2238 9.5 93.9726V44.7516C9.5 42.2253 10.5036 39.8024 12.29 38.016C14.0764 36.2296 16.4993 35.226 19.0256 35.226H90.6332C93.1595 35.226 95.5824 36.2296 97.3688 38.016C99.1552 39.8024 100.159 42.2253 100.159 44.7516V52.8372"/>
</mask>
<path d="M75.6608 103.5H55.1516C53.8555 103.569 52.6214 104.076 51.6524 104.94L36.0446 120.548C35.4906 121.1 34.7855 121.476 34.0183 121.628C33.251 121.779 32.456 121.701 31.7334 121.401C31.0108 121.102 30.3931 120.595 29.9581 119.945C29.5231 119.295 29.2904 118.531 29.2892 117.749V105.547C29.2864 105.004 29.0693 104.485 28.6854 104.101C28.3014 103.718 27.7815 103.502 27.239 103.5H19.0256C17.7745 103.5 16.5355 103.254 15.3796 102.775C14.2237 102.296 13.1734 101.595 12.2888 100.71C11.4042 99.8251 10.7026 98.7747 10.2241 97.6187C9.74558 96.4627 9.49953 95.2238 9.5 93.9726V44.7516C9.5 42.2253 10.5036 39.8024 12.29 38.016C14.0764 36.2296 16.4993 35.226 19.0256 35.226H90.6332C93.1595 35.226 95.5824 36.2296 97.3688 38.016C99.1552 39.8024 100.159 42.2253 100.159 44.7516V52.8372" fill="url(#paint1_linear_13297_5754)"/>
<path d="M75.6608 104.5C76.2131 104.5 76.6608 104.052 76.6608 103.5C76.6608 102.948 76.2131 102.5 75.6608 102.5V104.5ZM55.1516 103.5V102.5C55.134 102.5 55.1164 102.5 55.0988 102.501L55.1516 103.5ZM51.6524 104.94L50.9871 104.193C50.9728 104.206 50.9588 104.219 50.9453 104.233L51.6524 104.94ZM36.0446 120.548L36.7505 121.256L36.7517 121.255L36.0446 120.548ZM29.2892 117.749H28.2892L28.2892 117.75L29.2892 117.749ZM29.2892 105.547H30.2892L30.2892 105.541L29.2892 105.547ZM27.239 103.5L27.2425 102.5H27.239V103.5ZM19.0256 103.5V102.5H19.0254L19.0256 103.5ZM9.5 93.9726L10.5 93.973V93.9726H9.5ZM90.6332 35.226V34.226V35.226ZM99.1588 52.8372C99.1588 53.3895 99.6065 53.8372 100.159 53.8372C100.711 53.8372 101.159 53.3895 101.159 52.8372H99.1588ZM75.6608 102.5H55.1516V104.5H75.6608V102.5ZM55.0988 102.501C53.5758 102.582 52.1256 103.179 50.9871 104.193L52.3177 105.687C53.1171 104.974 54.1352 104.555 55.2044 104.499L55.0988 102.501ZM50.9453 104.233L35.3375 119.841L36.7517 121.255L52.3595 105.647L50.9453 104.233ZM35.3387 119.84C34.9246 120.252 34.3976 120.533 33.8241 120.647L34.2125 122.608C35.1735 122.418 36.0566 121.948 36.7505 121.256L35.3387 119.84ZM33.8241 120.647C33.2506 120.76 32.6563 120.701 32.1162 120.478L31.3506 122.325C32.2557 122.7 33.2515 122.799 34.2125 122.608L33.8241 120.647ZM32.1162 120.478C31.5761 120.254 31.1143 119.875 30.7892 119.389L29.127 120.501C29.6718 121.316 30.4456 121.95 31.3506 122.325L32.1162 120.478ZM30.7892 119.389C30.464 118.903 30.2901 118.332 30.2892 117.747L28.2892 117.75C28.2907 118.73 28.5822 119.687 29.127 120.501L30.7892 119.389ZM30.2892 117.749V105.547H28.2892V117.749H30.2892ZM30.2892 105.541C30.285 104.735 29.9624 103.963 29.3918 103.394L27.9789 104.809C28.1762 105.006 28.2878 105.273 28.2892 105.552L30.2892 105.541ZM29.3918 103.394C28.8212 102.824 28.0487 102.503 27.2425 102.5L27.2355 104.5C27.5144 104.501 27.7815 104.612 27.9789 104.809L29.3918 103.394ZM27.239 102.5H19.0256V104.5H27.239V102.5ZM19.0254 102.5C17.9056 102.5 16.7968 102.28 15.7623 101.851L14.997 103.699C16.2743 104.228 17.6433 104.5 19.0258 104.5L19.0254 102.5ZM15.7623 101.851C14.7277 101.423 13.7877 100.795 12.996 100.003L11.5816 101.417C12.5591 102.395 13.7197 103.17 14.997 103.699L15.7623 101.851ZM12.996 100.003C12.2043 99.211 11.5763 98.2709 11.1481 97.2363L9.30013 98.0012C9.82889 99.2786 10.6042 100.439 11.5816 101.417L12.996 100.003ZM11.1481 97.2363C10.7198 96.2016 10.4996 95.0928 10.5 93.973L8.5 93.9722C8.49948 95.3547 8.77136 96.7238 9.30013 98.0012L11.1481 97.2363ZM10.5 93.9726V44.7516H8.5V93.9726H10.5ZM10.5 44.7516C10.5 42.4905 11.3982 40.322 12.9971 38.7231L11.5829 37.3089C9.60895 39.2828 8.5 41.96 8.5 44.7516H10.5ZM12.9971 38.7231C14.596 37.1242 16.7645 36.226 19.0256 36.226V34.226C16.234 34.226 13.5568 35.335 11.5829 37.3089L12.9971 38.7231ZM19.0256 36.226H90.6332V34.226H19.0256V36.226ZM90.6332 36.226C92.8943 36.226 95.0629 37.1242 96.6617 38.7231L98.0759 37.3089C96.102 35.335 93.4248 34.226 90.6332 34.226V36.226ZM96.6617 38.7231C98.2606 40.322 99.1588 42.4905 99.1588 44.7516H101.159C101.159 41.96 100.05 39.2828 98.0759 37.3089L96.6617 38.7231ZM99.1588 44.7516V52.8372H101.159V44.7516H99.1588Z" fill="url(#paint2_linear_13297_5754)" mask="url(#path-2-inside-1_13297_5754)"/>
<path d="M126.263 126.221C126.254 126.22 126.246 126.22 126.237 126.22H91.0904C89.9159 126.22 88.7529 125.989 87.6679 125.539C86.5829 125.089 85.5972 124.43 84.767 123.599C83.9368 122.769 83.2785 121.782 82.8297 120.697C82.3809 119.612 82.1503 118.448 82.1512 117.274V117.274V68.4936C82.1512 66.1228 83.093 63.849 84.7694 62.1726C86.4458 60.4962 88.7196 59.5544 91.0904 59.5544H162.061C164.432 59.5544 166.705 60.4962 168.382 62.1726C170.058 63.849 171 66.1228 171 68.4936V117.274V117.274C171.001 118.448 170.77 119.612 170.321 120.697C169.873 121.782 169.214 122.769 168.384 123.599C167.554 124.43 166.568 125.089 165.483 125.539C164.398 125.989 163.235 126.22 162.061 126.22L153.937 126.22L153.935 126.22C153.262 126.224 152.618 126.492 152.141 126.967C151.665 127.443 151.396 128.087 151.391 128.759V128.763V140.841C151.391 141.518 151.19 142.18 150.814 142.743C150.438 143.306 149.904 143.744 149.278 144.003C148.653 144.262 147.965 144.33 147.301 144.198C146.637 144.066 146.027 143.74 145.548 143.261L145.548 143.261L130.094 127.806C130.087 127.8 130.08 127.793 130.073 127.787C129.019 126.846 127.674 126.293 126.263 126.221Z" fill="url(#paint3_linear_13297_5754)" stroke="url(#paint4_linear_13297_5754)" stroke-linecap="round" stroke-linejoin="round"/>
<defs>
<filter id="filter0_f_13297_5754" x="2.12891" y="10.0508" width="176" height="159" filterUnits="userSpaceOnUse" color-interpolation-filters="sRGB">
<feFlood flood-opacity="0" result="BackgroundImageFix"/>
<feBlend mode="normal" in="SourceGraphic" in2="BackgroundImageFix" result="shape"/>
<feGaussianBlur stdDeviation="26" result="effect1_foregroundBlur_13297_5754"/>
</filter>
<linearGradient id="paint0_linear_13297_5754" x1="55.3641" y1="62.0508" x2="106.141" y2="130.884" gradientUnits="userSpaceOnUse">
<stop stop-color="#E36CFD"/>
<stop offset="0.1563" stop-color="#0058FB"/>
<stop offset="0.4063" stop-color="#2EC0FB"/>
<stop offset="0.6875" stop-color="#14F7EF"/>
<stop offset="0.8438" stop-color="#F9E033"/>
<stop offset="0.9844" stop-color="#FAA143"/>
</linearGradient>
<linearGradient id="paint1_linear_13297_5754" x1="39.4965" y1="112.377" x2="93.6192" y2="83.647" gradientUnits="userSpaceOnUse">
<stop stop-color="#002A3E"/>
<stop offset="1" stop-color="#1E2020"/>
</linearGradient>
<linearGradient id="paint2_linear_13297_5754" x1="54.8294" y1="35.226" x2="126.568" y2="83.6293" gradientUnits="userSpaceOnUse">
<stop stop-color="white" stop-opacity="0.26"/>
<stop offset="1" stop-color="white" stop-opacity="0"/>
</linearGradient>
<linearGradient id="paint3_linear_13297_5754" x1="110.593" y1="69.7071" x2="131.435" y2="134.934" gradientUnits="userSpaceOnUse">
<stop stop-color="#53ABAC"/>
<stop offset="1" stop-color="#1E2020" stop-opacity="0"/>
</linearGradient>
<linearGradient id="paint4_linear_13297_5754" x1="126.576" y1="59.0544" x2="197.676" y2="107.024" gradientUnits="userSpaceOnUse">
<stop stop-color="white" stop-opacity="0.26"/>
<stop offset="1" stop-color="white" stop-opacity="0"/>
</linearGradient>
</defs>
</svg>
