<svg width="40" height="37" viewBox="0 0 40 37" fill="none" xmlns="http://www.w3.org/2000/svg">
<path d="M0.5 12.5078H3.80809C4.24677 12.5078 4.66748 12.6821 4.97767 12.9923C5.28786 13.3025 5.46213 13.7232 5.46213 14.1619V34.0104C5.46213 34.4491 5.28786 34.8698 4.97767 35.18C4.66748 35.4902 4.24677 35.6644 3.80809 35.6644H0.5" stroke="#F7F7F7" stroke-linecap="round" stroke-linejoin="round"/>
<path d="M5.46289 30.2771C17.6019 36.4401 17.0098 35.6279 27.4038 35.6279C31.7572 35.6279 33.9505 32.7912 35.2307 28.6346V28.6082L38.385 18.0223V18.0024C38.534 17.5096 38.566 16.9888 38.4783 16.4814C38.3906 15.974 38.1857 15.4941 37.8799 15.0799C37.5741 14.6657 37.1758 14.3285 36.7168 14.0953C36.2577 13.8622 35.7506 13.7393 35.2357 13.7367H27.1309C26.6245 13.7367 26.1249 13.6205 25.6706 13.397C25.2162 13.1736 24.8193 12.8488 24.5102 12.4477C24.2012 12.0466 23.9883 11.5799 23.8881 11.0836C23.7878 10.5873 23.8028 10.0746 23.9319 9.58503L25.3908 4.05391C25.5599 3.41075 25.4974 2.72859 25.2142 2.12687C24.9311 1.52516 24.4452 1.04222 23.8419 0.76261C23.2385 0.483002 22.556 0.424543 21.9138 0.597466C21.2717 0.77039 20.7108 1.16368 20.3294 1.70847L12.2445 13.1627C11.9391 13.5956 11.5342 13.9488 11.0638 14.1926C10.5935 14.4364 10.0715 14.5636 9.54176 14.5637H5.46289" stroke="#F7F7F7" stroke-linecap="round" stroke-linejoin="round"/>
</svg>
