<svg width="180" height="180" viewBox="0 0 180 180" fill="none" xmlns="http://www.w3.org/2000/svg">
<g filter="url(#filter0_f_12666_17959)">
<ellipse cx="90" cy="89.5" rx="36" ry="27.5" fill="url(#paint0_linear_12666_17959)" fill-opacity="0.35"/>
</g>
<path d="M41.4902 59.1465H137.342V122.134H41.4902V59.1465Z" fill="url(#paint1_linear_12666_17959)"/>
<path d="M61 60V122M74 60V122" stroke="url(#paint2_linear_12666_17959)" stroke-linecap="round" stroke-linejoin="round"/>
<path d="M101 60V122M114 60V122" stroke="url(#paint3_linear_12666_17959)" stroke-linecap="round" stroke-linejoin="round"/>
<path d="M41.9902 59.6465H136.842V121.634H41.9902V59.6465Z" stroke="url(#paint4_linear_12666_17959)" stroke-linecap="round" stroke-linejoin="round"/>
<path d="M80.0002 48H94.9998C96.5911 48 98.1173 48.6321 99.2426 49.7574C100.368 50.8826 101 52.4087 101 54H74C73.9997 53.212 74.1548 52.4317 74.4562 51.7036C74.7577 50.9755 75.1996 50.314 75.7569 49.7568C76.3141 49.1996 76.9756 48.7576 77.7037 48.4562C78.4318 48.1548 79.2122 47.9997 80.0002 48Z" stroke="#698989" stroke-linecap="round" stroke-linejoin="round"/>
<path d="M101 54V59" stroke="#698989" stroke-linecap="round" stroke-linejoin="round"/>
<path d="M74 54V59" stroke="#698989" stroke-linecap="round" stroke-linejoin="round"/>
<g filter="url(#filter1_b_12666_17959)">
<path d="M102.072 116.294C102.072 119.512 102.706 122.7 103.938 125.673C105.17 128.647 106.975 131.348 109.251 133.624C111.527 135.9 114.228 137.705 117.202 138.937C120.175 140.169 123.363 140.803 126.581 140.803C129.8 140.803 132.987 140.169 135.96 138.937C138.934 137.705 141.636 135.9 143.911 133.624C146.187 131.348 147.993 128.647 149.224 125.673C150.456 122.7 151.09 119.512 151.09 116.294C151.09 109.794 148.508 103.56 143.911 98.9636C139.315 94.3673 133.081 91.7852 126.581 91.7852C120.081 91.7852 113.847 94.3673 109.251 98.9636C104.654 103.56 102.072 109.794 102.072 116.294Z" fill="url(#paint5_linear_12666_17959)"/>
<path d="M104.4 125.482C103.193 122.569 102.572 119.447 102.572 116.294C102.572 109.926 105.102 103.82 109.604 99.3172C114.107 94.8146 120.214 92.2852 126.581 92.2852C132.949 92.2852 139.055 94.8146 143.558 99.3172C148.06 103.82 150.59 109.926 150.59 116.294C150.59 119.447 149.969 122.569 148.762 125.482C147.556 128.395 145.787 131.041 143.558 133.271C141.328 135.5 138.682 137.269 135.769 138.475C132.856 139.682 129.734 140.303 126.581 140.303C123.428 140.303 120.306 139.682 117.393 138.475C114.48 137.269 111.834 135.5 109.604 133.271C107.375 131.041 105.606 128.395 104.4 125.482Z" stroke="url(#paint6_linear_12666_17959)" stroke-linecap="round" stroke-linejoin="round"/>
</g>
<g clip-path="url(#clip0_12666_17959)">
<path d="M127 77L127 156.5" stroke="#71B88A"/>
<path d="M87.25 116.75C118.297 116.75 135.703 116.75 166.75 116.75" stroke="#71B88A"/>
</g>
<defs>
<filter id="filter0_f_12666_17959" x="2" y="10" width="176" height="159" filterUnits="userSpaceOnUse" color-interpolation-filters="sRGB">
<feFlood flood-opacity="0" result="BackgroundImageFix"/>
<feBlend mode="normal" in="SourceGraphic" in2="BackgroundImageFix" result="shape"/>
<feGaussianBlur stdDeviation="26" result="effect1_foregroundBlur_12666_17959"/>
</filter>
<filter id="filter1_b_12666_17959" x="98.0723" y="87.7852" width="57.0176" height="57.0176" filterUnits="userSpaceOnUse" color-interpolation-filters="sRGB">
<feFlood flood-opacity="0" result="BackgroundImageFix"/>
<feGaussianBlur in="BackgroundImageFix" stdDeviation="2"/>
<feComposite in2="SourceAlpha" operator="in" result="effect1_backgroundBlur_12666_17959"/>
<feBlend mode="normal" in="SourceGraphic" in2="effect1_backgroundBlur_12666_17959" result="shape"/>
</filter>
<linearGradient id="paint0_linear_12666_17959" x1="79" y1="117" x2="154.852" y2="77.1649" gradientUnits="userSpaceOnUse">
<stop stop-color="#E36CFD"/>
<stop offset="0.280832" stop-color="#0058FB"/>
<stop offset="0.5" stop-color="#2EC0FB"/>
<stop offset="0.6875" stop-color="#14F7EF"/>
<stop offset="0.8438" stop-color="#F9E033"/>
<stop offset="0.9844" stop-color="#FAA143"/>
</linearGradient>
<linearGradient id="paint1_linear_12666_17959" x1="74.5" y1="54" x2="83.3677" y2="120.823" gradientUnits="userSpaceOnUse">
<stop stop-color="#53ABAC"/>
<stop offset="1" stop-color="#1E2020" stop-opacity="0"/>
</linearGradient>
<linearGradient id="paint2_linear_12666_17959" x1="67.5" y1="60" x2="67.5" y2="122" gradientUnits="userSpaceOnUse">
<stop stop-color="white" stop-opacity="0.26"/>
<stop offset="1" stop-color="white" stop-opacity="0"/>
</linearGradient>
<linearGradient id="paint3_linear_12666_17959" x1="107.5" y1="60" x2="107.5" y2="122" gradientUnits="userSpaceOnUse">
<stop stop-color="white" stop-opacity="0.26"/>
<stop offset="1" stop-color="white" stop-opacity="0"/>
</linearGradient>
<linearGradient id="paint4_linear_12666_17959" x1="89.4161" y1="59.1465" x2="89.4161" y2="122.134" gradientUnits="userSpaceOnUse">
<stop stop-color="white" stop-opacity="0.26"/>
<stop offset="0.713542" stop-color="white" stop-opacity="0"/>
</linearGradient>
<linearGradient id="paint5_linear_12666_17959" x1="123.5" y1="70" x2="142.03" y2="125.173" gradientUnits="userSpaceOnUse">
<stop stop-color="#5FF088"/>
<stop offset="1" stop-color="#1E2020" stop-opacity="0"/>
</linearGradient>
<linearGradient id="paint6_linear_12666_17959" x1="126.581" y1="91.7852" x2="126.581" y2="140.803" gradientUnits="userSpaceOnUse">
<stop stop-color="white" stop-opacity="0.26"/>
<stop offset="0.713542" stop-color="white" stop-opacity="0"/>
</linearGradient>
<clipPath id="clip0_12666_17959">
<rect width="26.5" height="26.5" fill="white" transform="translate(113.75 103.5)"/>
</clipPath>
</defs>
</svg>
