<svg
      width="180"
      height="180"
      viewBox="0 0 180 180"
      fill="none"
      xmlns="http://www.w3.org/2000/svg"
    >
      <mask
        id="mask0_14630_2010"
        style='mask-type: alpha'
        maskUnits="userSpaceOnUse"
        x="60"
        y="21"
        width="59"
        height="94"
      >
        <mask id="path-1-inside-1_14630_2010" fill="white">
          <path
            fill-rule="evenodd"
            clip-rule="evenodd"
            d="M109.585 42.5072C110.762 46.1036 111.169 49.9079 110.777 53.6719L107.562 84.6769C122.88 93.8474 119.285 107.104 116.473 113.242C116.295 113.632 116.023 113.973 115.681 114.233C115.339 114.493 114.938 114.664 114.514 114.731C114.09 114.798 113.656 114.759 113.25 114.617C112.845 114.475 112.481 114.235 112.191 113.918L103.828 104.836H75.836L75.8356 104.832L67.4684 113.918C67.1783 114.234 66.8143 114.474 66.4091 114.615C66.0038 114.757 65.5698 114.796 65.1458 114.729C64.7218 114.662 64.3209 114.491 63.979 114.232C63.637 113.972 63.3647 113.632 63.1861 113.242C60.2836 106.905 56.5453 92.9795 73.6515 83.7974L70.5238 53.6741C70.1337 49.9095 70.541 46.1049 71.7192 42.5082C72.8974 38.9115 74.82 35.6033 77.3619 32.7991L85.6672 23.6418C86.2985 22.9464 87.0682 22.3906 87.927 22.0104C88.7858 21.6301 89.7146 21.4336 90.6538 21.4336C91.5931 21.4336 92.5219 21.6301 93.3807 22.0104C94.2395 22.3906 95.0092 22.9464 95.6404 23.6418L103.944 32.7991C106.485 35.6028 108.408 38.9107 109.585 42.5072ZM84.3453 57.1314C82.6724 55.4585 81.7325 53.1894 81.7325 50.8235C81.7325 48.4576 82.6724 46.1886 84.3453 44.5157C86.0183 42.8427 88.2873 41.9029 90.6532 41.9029C93.0191 41.9029 95.2881 42.8427 96.9611 44.5157C98.634 46.1886 99.5739 48.4576 99.5739 50.8235C99.5739 53.1894 98.634 55.4585 96.9611 57.1314C95.2881 58.8043 93.0191 59.7442 90.6532 59.7442C88.2873 59.7442 86.0183 58.8043 84.3453 57.1314Z"
          />
        </mask>
        <path
          fill-rule="evenodd"
          clip-rule="evenodd"
          d="M109.585 42.5072C110.762 46.1036 111.169 49.9079 110.777 53.6719L107.562 84.6769C122.88 93.8474 119.285 107.104 116.473 113.242C116.295 113.632 116.023 113.973 115.681 114.233C115.339 114.493 114.938 114.664 114.514 114.731C114.09 114.798 113.656 114.759 113.25 114.617C112.845 114.475 112.481 114.235 112.191 113.918L103.828 104.836H75.836L75.8356 104.832L67.4684 113.918C67.1783 114.234 66.8143 114.474 66.4091 114.615C66.0038 114.757 65.5698 114.796 65.1458 114.729C64.7218 114.662 64.3209 114.491 63.979 114.232C63.637 113.972 63.3647 113.632 63.1861 113.242C60.2836 106.905 56.5453 92.9795 73.6515 83.7974L70.5238 53.6741C70.1337 49.9095 70.541 46.1049 71.7192 42.5082C72.8974 38.9115 74.82 35.6033 77.3619 32.7991L85.6672 23.6418C86.2985 22.9464 87.0682 22.3906 87.927 22.0104C88.7858 21.6301 89.7146 21.4336 90.6538 21.4336C91.5931 21.4336 92.5219 21.6301 93.3807 22.0104C94.2395 22.3906 95.0092 22.9464 95.6404 23.6418L103.944 32.7991C106.485 35.6028 108.408 38.9107 109.585 42.5072ZM84.3453 57.1314C82.6724 55.4585 81.7325 53.1894 81.7325 50.8235C81.7325 48.4576 82.6724 46.1886 84.3453 44.5157C86.0183 42.8427 88.2873 41.9029 90.6532 41.9029C93.0191 41.9029 95.2881 42.8427 96.9611 44.5157C98.634 46.1886 99.5739 48.4576 99.5739 50.8235C99.5739 53.1894 98.634 55.4585 96.9611 57.1314C95.2881 58.8043 93.0191 59.7442 90.6532 59.7442C88.2873 59.7442 86.0183 58.8043 84.3453 57.1314Z"
          fill="black"
        />
        <path
          d="M110.777 53.6719L109.783 53.5684L109.783 53.5687L110.777 53.6719ZM107.562 84.6769L106.567 84.5737C106.527 84.9604 106.715 85.3352 107.048 85.5349L107.562 84.6769ZM116.473 113.242L115.564 112.825L115.564 112.827L116.473 113.242ZM115.681 114.233L115.076 113.437H115.076L115.681 114.233ZM114.514 114.731L114.67 115.719H114.67L114.514 114.731ZM112.191 113.918L112.929 113.243L112.927 113.24L112.191 113.918ZM103.828 104.836L104.563 104.159C104.374 103.953 104.107 103.836 103.828 103.836V104.836ZM75.836 104.836L74.8414 104.939C74.8942 105.449 75.3237 105.836 75.836 105.836V104.836ZM75.8356 104.832L76.8303 104.729C76.7897 104.338 76.5238 104.007 76.1506 103.883C75.7775 103.759 75.3664 103.866 75.1 104.155L75.8356 104.832ZM67.4684 113.918L66.7328 113.24L66.7314 113.242L67.4684 113.918ZM66.4091 114.615L66.7388 115.559H66.7388L66.4091 114.615ZM65.1458 114.729L65.3018 113.741H65.3017L65.1458 114.729ZM63.979 114.232L63.3744 115.028L63.3744 115.028L63.979 114.232ZM63.1861 113.242L64.0955 112.826L64.0953 112.825L63.1861 113.242ZM73.6515 83.7974L74.1245 84.6785C74.482 84.4866 74.6881 84.0977 74.6462 83.6941L73.6515 83.7974ZM70.5238 53.6741L69.5291 53.7772L69.5291 53.7774L70.5238 53.6741ZM71.7192 42.5082L72.6695 42.8195L71.7192 42.5082ZM77.3619 32.7991L76.6212 32.1273L76.621 32.1275L77.3619 32.7991ZM85.6672 23.6418L84.9268 22.9697L84.9265 22.97L85.6672 23.6418ZM87.927 22.0104L87.5221 21.096V21.096L87.927 22.0104ZM93.3807 22.0104L93.7856 21.096V21.096L93.3807 22.0104ZM95.6404 23.6418L96.3813 22.9701L96.3809 22.9697L95.6404 23.6418ZM103.944 32.7991L104.684 32.1275L104.684 32.1274L103.944 32.7991ZM111.772 53.7753C112.178 49.8716 111.757 45.926 110.535 42.196L108.635 42.8183C109.768 46.2812 110.16 49.9442 109.783 53.5684L111.772 53.7753ZM108.557 84.78L111.772 53.775L109.783 53.5687L106.567 84.5737L108.557 84.78ZM117.383 113.658C118.825 110.51 120.506 105.462 119.808 99.9705C119.102 94.4172 115.979 88.5505 108.076 83.8189L107.048 85.5349C114.463 89.9738 117.201 95.3206 117.824 100.223C118.455 105.187 116.934 109.836 115.564 112.825L117.383 113.658ZM116.286 115.029C116.76 114.669 117.137 114.197 117.383 113.656L115.564 112.827C115.454 113.067 115.287 113.277 115.076 113.437L116.286 115.029ZM114.67 115.719C115.258 115.626 115.813 115.389 116.286 115.029L115.076 113.437C114.866 113.597 114.619 113.702 114.358 113.743L114.67 115.719ZM112.92 115.56C113.481 115.757 114.083 115.811 114.67 115.719L114.358 113.743C114.097 113.784 113.83 113.76 113.581 113.673L112.92 115.56ZM111.453 114.593C111.855 115.031 112.359 115.364 112.92 115.56L113.581 113.673C113.331 113.585 113.107 113.438 112.929 113.243L111.453 114.593ZM103.092 105.514L111.456 114.595L112.927 113.24L104.563 104.159L103.092 105.514ZM75.836 105.836H103.828V103.836H75.836V105.836ZM74.841 104.935L74.8414 104.939L76.8307 104.733L76.8303 104.729L74.841 104.935ZM68.204 114.595L76.5712 105.51L75.1 104.155L66.7328 113.24L68.204 114.595ZM66.7388 115.559C67.2999 115.363 67.8038 115.032 68.2054 114.594L66.7314 113.242C66.5528 113.437 66.3288 113.584 66.0793 113.671L66.7388 115.559ZM64.9898 115.717C65.5769 115.809 66.1777 115.755 66.7388 115.559L66.0793 113.671C65.8299 113.758 65.5627 113.782 65.3018 113.741L64.9898 115.717ZM63.3744 115.028C63.8478 115.387 64.4028 115.624 64.9898 115.717L65.3017 113.741C65.0408 113.7 64.794 113.595 64.5835 113.435L63.3744 115.028ZM62.2767 113.657C62.5239 114.198 62.901 114.669 63.3744 115.028L64.5836 113.435C64.3731 113.275 64.2054 113.066 64.0955 112.826L62.2767 113.657ZM73.1786 82.9163C64.3821 87.638 60.8218 93.6667 59.9274 99.4332C59.0434 105.132 60.7888 110.409 62.277 113.658L64.0953 112.825C62.6809 109.737 61.1059 104.883 61.9037 99.7398C62.6911 94.6639 65.8147 89.1389 74.1245 84.6785L73.1786 82.9163ZM69.5291 53.7774L72.6569 83.9006L74.6462 83.6941L71.5184 53.5708L69.5291 53.7774ZM70.7689 42.1969C69.5469 45.9271 69.1245 49.8729 69.5291 53.7772L71.5184 53.5711C71.1428 49.9461 71.535 46.2828 72.6695 42.8195L70.7689 42.1969ZM76.621 32.1275C73.9848 35.0358 71.9908 38.4667 70.7689 42.1969L72.6695 42.8195C73.804 39.3563 75.6553 36.1709 78.1028 33.4707L76.621 32.1275ZM84.9265 22.97L76.6212 32.1273L78.1026 33.471L86.408 24.3136L84.9265 22.97ZM87.5221 21.096C86.5358 21.5328 85.6518 22.171 84.9268 22.9697L86.4077 24.3139C86.9452 23.7217 87.6007 23.2485 88.3319 22.9247L87.5221 21.096ZM90.6538 20.4336C89.5752 20.4336 88.5084 20.6592 87.5221 21.096L88.3319 22.9247C89.0632 22.6009 89.8541 22.4336 90.6538 22.4336V20.4336ZM93.7856 21.096C92.7993 20.6592 91.7325 20.4336 90.6538 20.4336V22.4336C91.4536 22.4336 92.2445 22.6009 92.9758 22.9247L93.7856 21.096ZM96.3809 22.9697C95.6559 22.171 94.7719 21.5328 93.7856 21.096L92.9758 22.9247C93.707 23.2485 94.3625 23.7217 94.9 24.3139L96.3809 22.9697ZM104.684 32.1274L96.3813 22.9701L94.8996 24.3135L103.203 33.4709L104.684 32.1274ZM110.535 42.196C109.314 38.466 107.321 35.0353 104.684 32.1275L103.203 33.4708C105.65 36.1703 107.501 39.3554 108.635 42.8183L110.535 42.196ZM80.7325 50.8235C80.7325 53.4547 81.7778 55.978 83.6382 57.8385L85.0525 56.4243C83.567 54.9389 82.7325 52.9242 82.7325 50.8235H80.7325ZM83.6382 43.8086C81.7778 45.6691 80.7325 48.1924 80.7325 50.8235H82.7325C82.7325 48.7229 83.567 46.7082 85.0525 45.2228L83.6382 43.8086ZM90.6532 40.9029C88.0221 40.9029 85.4987 41.9481 83.6382 43.8086L85.0525 45.2228C86.5379 43.7374 88.5525 42.9029 90.6532 42.9029V40.9029ZM97.6682 43.8086C95.8077 41.9481 93.2843 40.9029 90.6532 40.9029V42.9029C92.7539 42.9029 94.7686 43.7374 96.254 45.2228L97.6682 43.8086ZM100.574 50.8235C100.574 48.1924 99.5287 45.6691 97.6682 43.8086L96.254 45.2228C97.7394 46.7082 98.5739 48.7229 98.5739 50.8235H100.574ZM97.6682 57.8385C99.5287 55.978 100.574 53.4547 100.574 50.8235H98.5739C98.5739 52.9242 97.7394 54.9389 96.254 56.4243L97.6682 57.8385ZM90.6532 60.7442C93.2843 60.7442 95.8077 59.699 97.6682 57.8385L96.254 56.4243C94.7686 57.9097 92.7539 58.7442 90.6532 58.7442V60.7442ZM83.6382 57.8385C85.4987 59.699 88.0221 60.7442 90.6532 60.7442V58.7442C88.5525 58.7442 86.5379 57.9097 85.0525 56.4243L83.6382 57.8385Z"
          fill="url(#paint0_linear_14630_2010)"
          mask="url(#path-1-inside-1_14630_2010)"
        />
      </mask>
      <g mask="url(#mask0_14630_2010)">
        <rect
          x="43.6514"
          y="8.32031"
          width="123.208"
          height="123.208"
          fill="#53ABAC"
        />
        <g filter="url(#filter0_f_14630_2010)">
          <path
            d="M51.055 131.031C40.4667 139.195 27.0555 145.493 14.1094 142.153C1.67572 138.945 -5.0135 126.301 -11.1015 114.995C-16.3327 105.28 -18.5253 94.7379 -17.3297 83.7693C-16.0219 71.7715 -14.1133 58.3758 -4.18241 51.5176C5.73517 44.6685 18.6333 49.1531 30.5894 50.6766C43.6235 52.3375 58.9809 50.3462 67.1831 60.6113C75.593 71.1363 72.5436 86.2864 69.536 99.4186C66.7032 111.787 61.104 123.283 51.055 131.031Z"
            fill="#1D95BA"
          />
        </g>
        <g filter="url(#filter1_f_14630_2010)">
          <path
            d="M94.4799 221.744C78.0213 234.434 57.1746 244.225 37.0509 239.033C17.7238 234.046 7.32596 214.391 -2.13743 196.817C-10.2689 181.717 -13.6771 165.329 -11.8186 148.28C-9.78578 129.63 -6.81892 108.807 8.6178 98.1468C24.0339 87.5005 44.0831 94.4714 62.6678 96.8396C82.9283 99.4213 106.8 96.326 119.55 112.282C132.622 128.643 127.882 152.192 123.207 172.605C118.804 191.831 110.1 209.701 94.4799 221.744Z"
            fill="#D07E31"
          />
        </g>
        <g filter="url(#filter2_f_14630_2010)">
          <path
            d="M235.215 187.67C218.757 200.36 197.91 210.15 177.786 204.958C158.459 199.972 148.061 180.317 138.598 162.743C130.466 147.643 127.058 131.255 128.917 114.205C130.95 95.5558 133.916 74.7332 149.353 64.0726C164.769 53.4263 184.818 60.3972 203.403 62.7654C223.664 65.347 247.535 62.2518 260.285 78.208C273.358 94.5684 268.618 118.118 263.942 138.531C259.539 157.757 250.836 175.627 235.215 187.67Z"
            fill="#031A2A"
          />
        </g>
        <g filter="url(#filter3_f_14630_2010)">
          <circle cx="37.7534" cy="-1.47507" r="61.1187" fill="#DBD13A" />
        </g>
      </g>
      <path
        opacity="0.25"
        d="M100.356 104.828H80.9622C78.0482 111.226 76.3996 118.127 76.1074 125.151C76.1074 132.825 84.397 148.613 88.4584 155.884C88.6996 156.243 89.0254 156.538 89.4073 156.742C89.7892 156.945 90.2153 157.052 90.648 157.052C91.0808 157.052 91.5069 156.945 91.8887 156.742C92.2706 156.538 92.5965 156.243 92.8376 155.884C96.8945 148.616 105.2 132.832 105.202 125.158C104.914 118.132 103.268 111.229 100.356 104.828Z"
        fill="url(#paint1_linear_14630_2010)"
      />
      <path
        d="M88.451 104.859C88.4942 104.749 88.5325 104.654 88.5652 104.574L92.7504 104.576C92.783 104.656 92.8213 104.751 92.8645 104.861C93.0146 105.243 93.2232 105.802 93.4545 106.506C93.9173 107.914 94.4694 109.895 94.8265 112.185C95.5418 116.772 95.4649 122.527 92.4114 127.42C92.2057 127.686 91.9425 127.902 91.6415 128.051C91.3341 128.204 90.9955 128.283 90.6523 128.283C90.3091 128.283 89.9705 128.204 89.663 128.051C89.3621 127.902 89.0989 127.686 88.8933 127.421C85.842 122.525 85.7678 116.769 86.4854 112.182C86.8436 109.892 87.3966 107.912 87.8601 106.504C88.0918 105.8 88.3006 105.241 88.451 104.859Z"
        fill="url(#paint2_linear_14630_2010)"
        stroke="url(#paint3_linear_14630_2010)"
        stroke-linecap="round"
        stroke-linejoin="round"
      />
      <mask id="path-10-inside-2_14630_2010" fill="white">
        <path
          fill-rule="evenodd"
          clip-rule="evenodd"
          d="M109.585 42.5072C110.762 46.1036 111.169 49.9079 110.777 53.6719L107.562 84.6769C122.88 93.8474 119.285 107.104 116.473 113.242C116.295 113.632 116.023 113.973 115.681 114.233C115.339 114.493 114.938 114.664 114.514 114.731C114.09 114.798 113.656 114.759 113.25 114.617C112.845 114.475 112.481 114.235 112.191 113.918L103.828 104.836H75.836L75.8356 104.832L67.4684 113.918C67.1783 114.234 66.8143 114.474 66.4091 114.615C66.0038 114.757 65.5698 114.796 65.1458 114.729C64.7218 114.662 64.3209 114.491 63.979 114.232C63.637 113.972 63.3647 113.632 63.1861 113.242C60.2836 106.905 56.5453 92.9795 73.6515 83.7974L70.5238 53.6741C70.1337 49.9095 70.541 46.1049 71.7192 42.5082C72.8974 38.9115 74.82 35.6033 77.3619 32.7991L85.6672 23.6418C86.2985 22.9464 87.0682 22.3906 87.927 22.0104C88.7858 21.6301 89.7146 21.4336 90.6538 21.4336C91.5931 21.4336 92.5219 21.6301 93.3807 22.0104C94.2395 22.3906 95.0092 22.9464 95.6404 23.6418L103.944 32.7991C106.485 35.6028 108.408 38.9107 109.585 42.5072ZM84.3453 57.1314C82.6724 55.4585 81.7325 53.1894 81.7325 50.8235C81.7325 48.4576 82.6724 46.1886 84.3453 44.5157C86.0183 42.8427 88.2873 41.9029 90.6532 41.9029C93.0191 41.9029 95.2881 42.8427 96.9611 44.5157C98.634 46.1886 99.5739 48.4576 99.5739 50.8235C99.5739 53.1894 98.634 55.4585 96.9611 57.1314C95.2881 58.8043 93.0191 59.7442 90.6532 59.7442C88.2873 59.7442 86.0183 58.8043 84.3453 57.1314Z"
        />
      </mask>
      <path
        d="M110.777 53.6719L109.783 53.5684L109.783 53.5687L110.777 53.6719ZM107.562 84.6769L106.567 84.5737C106.527 84.9604 106.715 85.3352 107.048 85.5349L107.562 84.6769ZM116.473 113.242L115.564 112.825L115.564 112.827L116.473 113.242ZM115.681 114.233L115.076 113.437H115.076L115.681 114.233ZM114.514 114.731L114.67 115.719H114.67L114.514 114.731ZM112.191 113.918L112.929 113.243L112.927 113.24L112.191 113.918ZM103.828 104.836L104.563 104.159C104.374 103.953 104.107 103.836 103.828 103.836V104.836ZM75.836 104.836L74.8414 104.939C74.8942 105.449 75.3237 105.836 75.836 105.836V104.836ZM75.8356 104.832L76.8303 104.729C76.7897 104.338 76.5238 104.007 76.1506 103.883C75.7775 103.759 75.3664 103.866 75.1 104.155L75.8356 104.832ZM67.4684 113.918L66.7328 113.24L66.7314 113.242L67.4684 113.918ZM66.4091 114.615L66.7388 115.559H66.7388L66.4091 114.615ZM65.1458 114.729L65.3018 113.741H65.3017L65.1458 114.729ZM63.979 114.232L63.3744 115.028L63.3744 115.028L63.979 114.232ZM63.1861 113.242L64.0955 112.826L64.0953 112.825L63.1861 113.242ZM73.6515 83.7974L74.1245 84.6785C74.482 84.4866 74.6881 84.0977 74.6462 83.6941L73.6515 83.7974ZM70.5238 53.6741L69.5291 53.7772L69.5291 53.7774L70.5238 53.6741ZM71.7192 42.5082L72.6695 42.8195L71.7192 42.5082ZM77.3619 32.7991L76.6212 32.1273L76.621 32.1275L77.3619 32.7991ZM85.6672 23.6418L84.9268 22.9697L84.9265 22.97L85.6672 23.6418ZM87.927 22.0104L87.5221 21.096V21.096L87.927 22.0104ZM93.3807 22.0104L93.7856 21.096V21.096L93.3807 22.0104ZM95.6404 23.6418L96.3813 22.9701L96.3809 22.9697L95.6404 23.6418ZM103.944 32.7991L104.684 32.1275L104.684 32.1274L103.944 32.7991ZM111.772 53.7753C112.178 49.8716 111.757 45.926 110.535 42.196L108.635 42.8183C109.768 46.2812 110.16 49.9442 109.783 53.5684L111.772 53.7753ZM108.557 84.78L111.772 53.775L109.783 53.5687L106.567 84.5737L108.557 84.78ZM117.383 113.658C118.825 110.51 120.506 105.462 119.808 99.9705C119.102 94.4172 115.979 88.5505 108.076 83.8189L107.048 85.5349C114.463 89.9738 117.201 95.3206 117.824 100.223C118.455 105.187 116.934 109.836 115.564 112.825L117.383 113.658ZM116.286 115.029C116.76 114.669 117.137 114.197 117.383 113.656L115.564 112.827C115.454 113.067 115.287 113.277 115.076 113.437L116.286 115.029ZM114.67 115.719C115.258 115.626 115.813 115.389 116.286 115.029L115.076 113.437C114.866 113.597 114.619 113.702 114.358 113.743L114.67 115.719ZM112.92 115.56C113.481 115.757 114.083 115.811 114.67 115.719L114.358 113.743C114.097 113.784 113.83 113.76 113.581 113.673L112.92 115.56ZM111.453 114.593C111.855 115.031 112.359 115.364 112.92 115.56L113.581 113.673C113.331 113.585 113.107 113.438 112.929 113.243L111.453 114.593ZM103.092 105.514L111.456 114.595L112.927 113.24L104.563 104.159L103.092 105.514ZM75.836 105.836H103.828V103.836H75.836V105.836ZM74.841 104.935L74.8414 104.939L76.8307 104.733L76.8303 104.729L74.841 104.935ZM68.204 114.595L76.5712 105.51L75.1 104.155L66.7328 113.24L68.204 114.595ZM66.7388 115.559C67.2999 115.363 67.8038 115.032 68.2054 114.594L66.7314 113.242C66.5528 113.437 66.3288 113.584 66.0793 113.671L66.7388 115.559ZM64.9898 115.717C65.5769 115.809 66.1777 115.755 66.7388 115.559L66.0793 113.671C65.8299 113.758 65.5627 113.782 65.3018 113.741L64.9898 115.717ZM63.3744 115.028C63.8478 115.387 64.4028 115.624 64.9898 115.717L65.3017 113.741C65.0408 113.7 64.794 113.595 64.5835 113.435L63.3744 115.028ZM62.2767 113.657C62.5239 114.198 62.901 114.669 63.3744 115.028L64.5836 113.435C64.3731 113.275 64.2054 113.066 64.0955 112.826L62.2767 113.657ZM73.1786 82.9163C64.3821 87.638 60.8218 93.6667 59.9274 99.4332C59.0434 105.132 60.7888 110.409 62.277 113.658L64.0953 112.825C62.6809 109.737 61.1059 104.883 61.9037 99.7398C62.6911 94.6639 65.8147 89.1389 74.1245 84.6785L73.1786 82.9163ZM69.5291 53.7774L72.6569 83.9006L74.6462 83.6941L71.5184 53.5708L69.5291 53.7774ZM70.7689 42.1969C69.5469 45.9271 69.1245 49.8729 69.5291 53.7772L71.5184 53.5711C71.1428 49.9461 71.535 46.2828 72.6695 42.8195L70.7689 42.1969ZM76.621 32.1275C73.9848 35.0358 71.9908 38.4667 70.7689 42.1969L72.6695 42.8195C73.804 39.3563 75.6553 36.1709 78.1028 33.4707L76.621 32.1275ZM84.9265 22.97L76.6212 32.1273L78.1026 33.471L86.408 24.3136L84.9265 22.97ZM87.5221 21.096C86.5358 21.5328 85.6518 22.171 84.9268 22.9697L86.4077 24.3139C86.9452 23.7217 87.6007 23.2485 88.3319 22.9247L87.5221 21.096ZM90.6538 20.4336C89.5752 20.4336 88.5084 20.6592 87.5221 21.096L88.3319 22.9247C89.0632 22.6009 89.8541 22.4336 90.6538 22.4336V20.4336ZM93.7856 21.096C92.7993 20.6592 91.7325 20.4336 90.6538 20.4336V22.4336C91.4536 22.4336 92.2445 22.6009 92.9758 22.9247L93.7856 21.096ZM96.3809 22.9697C95.6559 22.171 94.7719 21.5328 93.7856 21.096L92.9758 22.9247C93.707 23.2485 94.3625 23.7217 94.9 24.3139L96.3809 22.9697ZM104.684 32.1274L96.3813 22.9701L94.8996 24.3135L103.203 33.4709L104.684 32.1274ZM110.535 42.196C109.314 38.466 107.321 35.0353 104.684 32.1275L103.203 33.4708C105.65 36.1703 107.501 39.3554 108.635 42.8183L110.535 42.196ZM80.7325 50.8235C80.7325 53.4547 81.7778 55.978 83.6382 57.8385L85.0525 56.4243C83.567 54.9389 82.7325 52.9242 82.7325 50.8235H80.7325ZM83.6382 43.8086C81.7778 45.6691 80.7325 48.1924 80.7325 50.8235H82.7325C82.7325 48.7229 83.567 46.7082 85.0525 45.2228L83.6382 43.8086ZM90.6532 40.9029C88.0221 40.9029 85.4987 41.9481 83.6382 43.8086L85.0525 45.2228C86.5379 43.7374 88.5525 42.9029 90.6532 42.9029V40.9029ZM97.6682 43.8086C95.8077 41.9481 93.2843 40.9029 90.6532 40.9029V42.9029C92.7539 42.9029 94.7686 43.7374 96.254 45.2228L97.6682 43.8086ZM100.574 50.8235C100.574 48.1924 99.5287 45.6691 97.6682 43.8086L96.254 45.2228C97.7394 46.7082 98.5739 48.7229 98.5739 50.8235H100.574ZM97.6682 57.8385C99.5287 55.978 100.574 53.4547 100.574 50.8235H98.5739C98.5739 52.9242 97.7394 54.9389 96.254 56.4243L97.6682 57.8385ZM90.6532 60.7442C93.2843 60.7442 95.8077 59.699 97.6682 57.8385L96.254 56.4243C94.7686 57.9097 92.7539 58.7442 90.6532 58.7442V60.7442ZM83.6382 57.8385C85.4987 59.699 88.0221 60.7442 90.6532 60.7442V58.7442C88.5525 58.7442 86.5379 57.9097 85.0525 56.4243L83.6382 57.8385Z"
        fill="url(#paint4_linear_14630_2010)"
        mask="url(#path-10-inside-2_14630_2010)"
      />
      <g filter="url(#filter4_bd_14630_2010)">
        <path
          d="M46.9863 81.1194C46.9863 85.6047 50.6223 89.2407 55.1075 89.2407H73.3803C78.9868 89.2407 83.5318 84.6957 83.5318 79.0891C83.5318 73.4826 78.9868 68.9376 73.3803 68.9376C73.3126 68.9376 73.245 68.9383 73.1776 68.9396C72.2378 64.305 68.1407 60.8164 63.2288 60.8164C57.6222 60.8164 53.0772 65.3614 53.0772 70.9679C53.0772 71.733 53.1619 72.4784 53.3223 73.1951C49.6959 74.0085 46.9863 77.2476 46.9863 81.1194Z"
          fill="url(#paint5_linear_14630_2010)"
          fill-opacity="0.25"
          shape-rendering="crispEdges"
        />
        <path
          d="M72.6876 69.039C72.7356 69.2757 72.9459 69.4442 73.1874 69.4395C73.2515 69.4383 73.3158 69.4376 73.3803 69.4376C78.7107 69.4376 83.0318 73.7588 83.0318 79.0891C83.0318 84.4195 78.7107 88.7407 73.3803 88.7407H55.1075C50.8985 88.7407 47.4863 85.3285 47.4863 81.1194C47.4863 77.4866 50.0287 74.4463 53.4317 73.683C53.7011 73.6225 53.8705 73.3552 53.8102 73.0859C53.6578 72.4048 53.5772 71.696 53.5772 70.9679C53.5772 65.6375 57.8984 61.3164 63.2288 61.3164C67.8982 61.3164 71.7941 64.6328 72.6876 69.039Z"
          stroke="url(#paint6_linear_14630_2010)"
          stroke-linecap="round"
          stroke-linejoin="round"
          shape-rendering="crispEdges"
        />
      </g>
      <g filter="url(#filter5_bd_14630_2010)">
        <path
          d="M137.244 99.0921C137.244 103.577 133.608 107.213 129.123 107.213H110.85C105.244 107.213 100.699 102.668 100.699 97.0618C100.699 91.4553 105.244 86.9103 110.85 86.9103C110.918 86.9103 110.985 86.9109 111.053 86.9123C111.993 82.2776 116.09 78.7891 121.002 78.7891C126.608 78.7891 131.153 83.3341 131.153 88.9406C131.153 89.7057 131.069 90.451 130.908 91.1677C134.535 91.9812 137.244 95.2202 137.244 99.0921Z"
          fill="url(#paint7_linear_14630_2010)"
          fill-opacity="0.25"
          shape-rendering="crispEdges"
        />
        <path
          d="M111.543 87.0116C111.495 87.2483 111.285 87.4169 111.043 87.4122C110.979 87.4109 110.915 87.4103 110.85 87.4103C105.52 87.4103 101.199 91.7314 101.199 97.0618C101.199 102.392 105.52 106.713 110.85 106.713H129.123C133.332 106.713 136.744 103.301 136.744 99.0921C136.744 95.4592 134.202 92.4189 130.799 91.6556C130.529 91.5952 130.36 91.3279 130.42 91.0585C130.573 90.3774 130.653 89.6687 130.653 88.9406C130.653 83.6102 126.332 79.2891 121.002 79.2891C116.332 79.2891 112.436 82.6055 111.543 87.0116Z"
          stroke="url(#paint8_linear_14630_2010)"
          stroke-linecap="round"
          stroke-linejoin="round"
          shape-rendering="crispEdges"
        />
      </g>
      <g filter="url(#filter6_bd_14630_2010)">
        <path
          d="M118.972 38.8878C118.972 41.514 116.843 43.6429 114.217 43.6429H103.518C100.235 43.6429 97.5737 40.9817 97.5737 37.699C97.5737 34.4163 100.235 31.7551 103.518 31.7551C103.557 31.7551 103.597 31.7555 103.636 31.7563C104.187 29.0426 106.585 27 109.461 27C112.744 27 115.405 29.6612 115.405 32.9439C115.405 33.3919 115.356 33.8283 115.262 34.2479C117.385 34.7242 118.972 36.6207 118.972 38.8878Z"
          fill="url(#paint9_linear_14630_2010)"
          fill-opacity="0.25"
          shape-rendering="crispEdges"
        />
        <path
          d="M104.126 31.8556C104.078 32.0923 103.868 32.2609 103.626 32.2562C103.59 32.2555 103.554 32.2551 103.518 32.2551C100.511 32.2551 98.0737 34.6924 98.0737 37.699C98.0737 40.7056 100.511 43.1429 103.518 43.1429H114.217C116.567 43.1429 118.472 41.2378 118.472 38.8878C118.472 36.8597 117.052 35.162 115.152 34.7358C114.883 34.6754 114.714 34.4081 114.774 34.1387C114.86 33.7547 114.905 33.3549 114.905 32.9439C114.905 29.9373 112.468 27.5 109.461 27.5C106.828 27.5 104.63 29.3705 104.126 31.8556Z"
          stroke="url(#paint10_linear_14630_2010)"
          stroke-linecap="round"
          stroke-linejoin="round"
          shape-rendering="crispEdges"
        />
      </g>
      <defs>
        <filter
          id="filter0_f_14630_2010"
          x="-39.3242"
          y="26.1484"
          width="133.646"
          height="138.594"
          filterUnits="userSpaceOnUse"
          color-interpolation-filters="sRGB"
        >
          <feFlood flood-opacity="0" result="BackgroundImageFix" />
          <feBlend
            mode="normal"
            in="SourceGraphic"
            in2="BackgroundImageFix"
            result="shape"
          />
          <feGaussianBlur
            stdDeviation="10.8379"
            result="effect1_foregroundBlur_14630_2010"
          />
        </filter>
        <filter
          id="filter1_f_14630_2010"
          x="-33.9893"
          y="70.7305"
          width="183.705"
          height="191.398"
          filterUnits="userSpaceOnUse"
          color-interpolation-filters="sRGB"
        >
          <feFlood flood-opacity="0" result="BackgroundImageFix" />
          <feBlend
            mode="normal"
            in="SourceGraphic"
            in2="BackgroundImageFix"
            result="shape"
          />
          <feGaussianBlur
            stdDeviation="10.8379"
            result="effect1_foregroundBlur_14630_2010"
          />
        </filter>
        <filter
          id="filter2_f_14630_2010"
          x="94.1019"
          y="24.012"
          width="208.993"
          height="216.687"
          filterUnits="userSpaceOnUse"
          color-interpolation-filters="sRGB"
        >
          <feFlood flood-opacity="0" result="BackgroundImageFix" />
          <feBlend
            mode="normal"
            in="SourceGraphic"
            in2="BackgroundImageFix"
            result="shape"
          />
          <feGaussianBlur
            stdDeviation="17.16"
            result="effect1_foregroundBlur_14630_2010"
          />
        </filter>
        <filter
          id="filter3_f_14630_2010"
          x="-68.5231"
          y="-107.752"
          width="212.553"
          height="212.554"
          filterUnits="userSpaceOnUse"
          color-interpolation-filters="sRGB"
        >
          <feFlood flood-opacity="0" result="BackgroundImageFix" />
          <feBlend
            mode="normal"
            in="SourceGraphic"
            in2="BackgroundImageFix"
            result="shape"
          />
          <feGaussianBlur
            stdDeviation="22.5789"
            result="effect1_foregroundBlur_14630_2010"
          />
        </filter>
        <filter
          id="filter4_bd_14630_2010"
          x="38.9863"
          y="52.8164"
          width="52.5459"
          height="44.4258"
          filterUnits="userSpaceOnUse"
          color-interpolation-filters="sRGB"
        >
          <feFlood flood-opacity="0" result="BackgroundImageFix" />
          <feGaussianBlur in="BackgroundImageFix" stdDeviation="4" />
          <feComposite
            in2="SourceAlpha"
            operator="in"
            result="effect1_backgroundBlur_14630_2010"
          />
          <feColorMatrix
            in="SourceAlpha"
            type="matrix"
            values="0 0 0 0 0 0 0 0 0 0 0 0 0 0 0 0 0 0 127 0"
            result="hardAlpha"
          />
          <feOffset dx="-1" dy="1" />
          <feGaussianBlur stdDeviation="2" />
          <feComposite in2="hardAlpha" operator="out" />
          <feColorMatrix
            type="matrix"
            values="0 0 0 0 0 0 0 0 0 0 0 0 0 0 0 0 0 0 0.25 0"
          />
          <feBlend
            mode="normal"
            in2="effect1_backgroundBlur_14630_2010"
            result="effect2_dropShadow_14630_2010"
          />
          <feBlend
            mode="normal"
            in="SourceGraphic"
            in2="effect2_dropShadow_14630_2010"
            result="shape"
          />
        </filter>
        <filter
          id="filter5_bd_14630_2010"
          x="92.6982"
          y="70.7891"
          width="52.5459"
          height="44.4258"
          filterUnits="userSpaceOnUse"
          color-interpolation-filters="sRGB"
        >
          <feFlood flood-opacity="0" result="BackgroundImageFix" />
          <feGaussianBlur in="BackgroundImageFix" stdDeviation="4" />
          <feComposite
            in2="SourceAlpha"
            operator="in"
            result="effect1_backgroundBlur_14630_2010"
          />
          <feColorMatrix
            in="SourceAlpha"
            type="matrix"
            values="0 0 0 0 0 0 0 0 0 0 0 0 0 0 0 0 0 0 127 0"
            result="hardAlpha"
          />
          <feOffset dx="-1" dy="1" />
          <feGaussianBlur stdDeviation="2" />
          <feComposite in2="hardAlpha" operator="out" />
          <feColorMatrix
            type="matrix"
            values="0 0 0 0 0 0 0 0 0 0 0 0 0 0 0 0 0 0 0.25 0"
          />
          <feBlend
            mode="normal"
            in2="effect1_backgroundBlur_14630_2010"
            result="effect2_dropShadow_14630_2010"
          />
          <feBlend
            mode="normal"
            in="SourceGraphic"
            in2="effect2_dropShadow_14630_2010"
            result="shape"
          />
        </filter>
        <filter
          id="filter6_bd_14630_2010"
          x="89.5732"
          y="19"
          width="37.3984"
          height="32.6445"
          filterUnits="userSpaceOnUse"
          color-interpolation-filters="sRGB"
        >
          <feFlood flood-opacity="0" result="BackgroundImageFix" />
          <feGaussianBlur in="BackgroundImageFix" stdDeviation="4" />
          <feComposite
            in2="SourceAlpha"
            operator="in"
            result="effect1_backgroundBlur_14630_2010"
          />
          <feColorMatrix
            in="SourceAlpha"
            type="matrix"
            values="0 0 0 0 0 0 0 0 0 0 0 0 0 0 0 0 0 0 127 0"
            result="hardAlpha"
          />
          <feOffset dx="-1" dy="1" />
          <feGaussianBlur stdDeviation="2" />
          <feComposite in2="hardAlpha" operator="out" />
          <feColorMatrix
            type="matrix"
            values="0 0 0 0 0 0 0 0 0 0 0 0 0 0 0 0 0 0 0.25 0"
          />
          <feBlend
            mode="normal"
            in2="effect1_backgroundBlur_14630_2010"
            result="effect2_dropShadow_14630_2010"
          />
          <feBlend
            mode="normal"
            in="SourceGraphic"
            in2="effect2_dropShadow_14630_2010"
            result="shape"
          />
        </filter>
        <linearGradient
          id="paint0_linear_14630_2010"
          x1="113.049"
          y1="85.9182"
          x2="113.049"
          y2="133.499"
          gradientUnits="userSpaceOnUse"
        >
          <stop stop-color="white" stop-opacity="0.26" />
          <stop offset="0.713542" stop-color="white" stop-opacity="0" />
        </linearGradient>
        <linearGradient
          id="paint1_linear_14630_2010"
          x1="99.724"
          y1="100.112"
          x2="112.512"
          y2="148.47"
          gradientUnits="userSpaceOnUse"
        >
          <stop stop-color="#FAA143" />
          <stop offset="1" stop-color="#1E2020" stop-opacity="0" />
        </linearGradient>
        <linearGradient
          id="paint2_linear_14630_2010"
          x1="93.7991"
          y1="101.843"
          x2="101.616"
          y2="123.502"
          gradientUnits="userSpaceOnUse"
        >
          <stop stop-color="#FAA143" />
          <stop offset="1" stop-color="#1E2020" stop-opacity="0" />
        </linearGradient>
        <linearGradient
          id="paint3_linear_14630_2010"
          x1="90.6548"
          y1="104.074"
          x2="90.6548"
          y2="128.783"
          gradientUnits="userSpaceOnUse"
        >
          <stop stop-color="white" stop-opacity="0.26" />
          <stop offset="0.713542" stop-color="white" stop-opacity="0" />
        </linearGradient>
        <linearGradient
          id="paint4_linear_14630_2010"
          x1="89.8298"
          y1="36.9463"
          x2="96.0797"
          y2="114.257"
          gradientUnits="userSpaceOnUse"
        >
          <stop offset="0.0737628" stop-color="white" stop-opacity="0.26" />
          <stop offset="0.713542" stop-color="white" stop-opacity="0" />
        </linearGradient>
        <linearGradient
          id="paint5_linear_14630_2010"
          x1="75.5895"
          y1="60.1415"
          x2="68.2457"
          y2="83.7523"
          gradientUnits="userSpaceOnUse"
        >
          <stop stop-color="#04D4FF" />
          <stop offset="1" stop-color="#46D0B4" />
        </linearGradient>
        <linearGradient
          id="paint6_linear_14630_2010"
          x1="65.2591"
          y1="66.511"
          x2="67.234"
          y2="96.9809"
          gradientUnits="userSpaceOnUse"
        >
          <stop stop-color="white" stop-opacity="0.26" />
          <stop offset="0.713542" stop-color="white" stop-opacity="0" />
        </linearGradient>
        <linearGradient
          id="paint7_linear_14630_2010"
          x1="108.641"
          y1="78.1142"
          x2="115.985"
          y2="101.725"
          gradientUnits="userSpaceOnUse"
        >
          <stop stop-color="#04D4FF" />
          <stop offset="1" stop-color="#46D0B4" />
        </linearGradient>
        <linearGradient
          id="paint8_linear_14630_2010"
          x1="118.971"
          y1="84.4837"
          x2="116.996"
          y2="114.954"
          gradientUnits="userSpaceOnUse"
        >
          <stop stop-color="white" stop-opacity="0.26" />
          <stop offset="0.713542" stop-color="white" stop-opacity="0" />
        </linearGradient>
        <linearGradient
          id="paint9_linear_14630_2010"
          x1="102.224"
          y1="26.6048"
          x2="106.524"
          y2="40.4294"
          gradientUnits="userSpaceOnUse"
        >
          <stop stop-color="#04D4FF" />
          <stop offset="1" stop-color="#46D0B4" />
        </linearGradient>
        <linearGradient
          id="paint10_linear_14630_2010"
          x1="108.273"
          y1="30.3343"
          x2="107.116"
          y2="48.1749"
          gradientUnits="userSpaceOnUse"
        >
          <stop stop-color="white" stop-opacity="0.26" />
          <stop offset="0.713542" stop-color="white" stop-opacity="0" />
        </linearGradient>
      </defs>
    </svg>