<svg width="180" height="180" viewBox="0 0 180 180" fill="none" xmlns="http://www.w3.org/2000/svg">
<rect x="87.5" y="40.5" width="56" height="28" rx="3.5" fill="url(#paint0_linear_15117_23478)"/>
<path d="M101.996 50.9C102.443 50.9 102.829 50.9833 103.156 51.15C103.489 51.31 103.749 51.54 103.936 51.84C104.123 52.14 104.216 52.4967 104.216 52.91C104.216 53.3233 104.123 53.68 103.936 53.98C103.749 54.28 103.489 54.5133 103.156 54.68C102.829 54.84 102.443 54.92 101.996 54.92H100.466V57.5H99.6659V50.9H101.996ZM101.876 54.17C102.396 54.17 102.776 54.0633 103.016 53.85C103.256 53.63 103.376 53.3167 103.376 52.91C103.376 52.4967 103.256 52.1833 103.016 51.97C102.776 51.7567 102.396 51.65 101.876 51.65H100.466V54.17H101.876ZM109.729 52.5L107.379 58.34C107.253 58.6667 107.113 58.9233 106.959 59.11C106.813 59.3033 106.646 59.44 106.459 59.52C106.279 59.6067 106.069 59.65 105.829 59.65C105.603 59.65 105.393 59.6167 105.199 59.55C105.013 59.49 104.846 59.4067 104.699 59.3L104.919 58.6C105.053 58.72 105.193 58.8067 105.339 58.86C105.493 58.92 105.643 58.95 105.789 58.95C105.963 58.95 106.126 58.8967 106.279 58.79C106.433 58.6833 106.573 58.4667 106.699 58.14L106.959 57.49L106.459 56.3L104.869 52.5H105.779L107.029 55.76L107.339 56.65L107.699 55.66L108.869 52.5H109.729ZM111.956 51.08V56.12C111.956 56.3667 112.026 56.55 112.166 56.67C112.306 56.79 112.486 56.85 112.706 56.85C112.899 56.85 113.066 56.8167 113.206 56.75C113.346 56.6833 113.472 56.5933 113.586 56.48L113.866 57.15C113.712 57.29 113.529 57.4 113.316 57.48C113.109 57.56 112.869 57.6 112.596 57.6C112.342 57.6 112.106 57.5567 111.886 57.47C111.666 57.3767 111.489 57.2333 111.356 57.04C111.229 56.84 111.162 56.58 111.156 56.26V51.3L111.956 51.08ZM113.776 52.5V53.19H110.156V52.5H113.776ZM114.965 57.5V50.2H115.765V53.25C115.938 52.95 116.168 52.7333 116.455 52.6C116.742 52.4667 117.055 52.4 117.395 52.4C117.755 52.4 118.082 52.47 118.375 52.61C118.668 52.7433 118.902 52.95 119.075 53.23C119.255 53.51 119.345 53.8667 119.345 54.3V57.5H118.545V54.58C118.545 54.0267 118.425 53.6433 118.185 53.43C117.952 53.21 117.662 53.1 117.315 53.1C117.075 53.1 116.835 53.1567 116.595 53.27C116.355 53.3833 116.155 53.57 115.995 53.83C115.842 54.0833 115.765 54.4233 115.765 54.85V57.5H114.965ZM123.227 52.4C123.7 52.4 124.117 52.5033 124.477 52.71C124.843 52.9167 125.13 53.2167 125.337 53.61C125.543 53.9967 125.647 54.46 125.647 55C125.647 55.54 125.543 56.0067 125.337 56.4C125.13 56.7867 124.843 57.0833 124.477 57.29C124.117 57.4967 123.7 57.6 123.227 57.6C122.76 57.6 122.343 57.4967 121.977 57.29C121.61 57.0833 121.323 56.7867 121.117 56.4C120.91 56.0067 120.807 55.54 120.807 55C120.807 54.46 120.91 53.9967 121.117 53.61C121.323 53.2167 121.61 52.9167 121.977 52.71C122.343 52.5033 122.76 52.4 123.227 52.4ZM123.227 53.09C122.887 53.09 122.597 53.1667 122.357 53.32C122.117 53.4733 121.93 53.6933 121.797 53.98C121.67 54.26 121.607 54.6 121.607 55C121.607 55.3933 121.67 55.7333 121.797 56.02C121.93 56.3067 122.117 56.5267 122.357 56.68C122.597 56.8333 122.887 56.91 123.227 56.91C123.567 56.91 123.857 56.8333 124.097 56.68C124.337 56.5267 124.52 56.3067 124.647 56.02C124.78 55.7333 124.847 55.3933 124.847 55C124.847 54.6 124.78 54.26 124.647 53.98C124.52 53.6933 124.337 53.4733 124.097 53.32C123.857 53.1667 123.567 53.09 123.227 53.09ZM127.153 57.5V52.5H127.853L127.923 53.62L127.793 53.51C127.899 53.2433 128.043 53.03 128.223 52.87C128.403 52.7033 128.609 52.5833 128.843 52.51C129.083 52.4367 129.329 52.4 129.583 52.4C129.943 52.4 130.269 52.47 130.563 52.61C130.856 52.7433 131.089 52.95 131.263 53.23C131.443 53.51 131.533 53.8667 131.533 54.3V57.5H130.733V54.58C130.733 54.0267 130.613 53.6433 130.373 53.43C130.139 53.21 129.849 53.1 129.503 53.1C129.263 53.1 129.023 53.1567 128.783 53.27C128.543 53.3833 128.343 53.5667 128.183 53.82C128.029 54.0733 127.953 54.4133 127.953 54.84V57.5H127.153Z" fill="white"/>
<rect x="87.5" y="40.5" width="56" height="28" rx="3.5" stroke="url(#paint1_linear_15117_23478)"/>
<rect x="35.25" y="82.75" width="75" height="34" rx="3.5" fill="url(#paint2_linear_15117_23478)"/>
<path d="M50.398 96.15V100.49C50.398 101.23 50.198 101.81 49.798 102.23C49.4047 102.643 48.858 102.85 48.158 102.85C47.6647 102.85 47.258 102.757 46.938 102.57C46.618 102.383 46.3947 102.12 46.268 101.78C46.148 101.433 46.1314 101.03 46.218 100.57L46.958 100.42C46.8847 100.987 46.9347 101.41 47.108 101.69C47.288 101.963 47.628 102.1 48.128 102.1C48.6947 102.1 49.0814 101.947 49.288 101.64C49.4947 101.327 49.598 100.877 49.598 100.29V96.15H50.398ZM55.0863 99.52C55.0863 99.1467 54.9863 98.86 54.7863 98.66C54.5863 98.4533 54.303 98.35 53.9363 98.35C53.5897 98.35 53.2963 98.4267 53.0563 98.58C52.8163 98.7267 52.6397 98.9667 52.5263 99.3L51.8763 98.9C52.0097 98.5267 52.2563 98.2267 52.6163 98C52.9763 97.7667 53.423 97.65 53.9563 97.65C54.3163 97.65 54.643 97.7133 54.9363 97.84C55.2297 97.96 55.4597 98.1467 55.6263 98.4C55.7997 98.6467 55.8863 98.9667 55.8863 99.36V101.78C55.8863 102.02 56.013 102.14 56.2663 102.14C56.393 102.14 56.5163 102.123 56.6363 102.09L56.5963 102.72C56.463 102.787 56.2897 102.82 56.0763 102.82C55.883 102.82 55.7097 102.783 55.5563 102.71C55.403 102.637 55.283 102.527 55.1963 102.38C55.1097 102.227 55.0663 102.037 55.0663 101.81V101.71L55.2663 101.74C55.1863 102 55.0497 102.213 54.8563 102.38C54.663 102.54 54.4463 102.66 54.2063 102.74C53.9663 102.813 53.7297 102.85 53.4963 102.85C53.203 102.85 52.9297 102.8 52.6763 102.7C52.423 102.6 52.2197 102.45 52.0663 102.25C51.9197 102.043 51.8463 101.79 51.8463 101.49C51.8463 101.117 51.9697 100.81 52.2163 100.57C52.4697 100.323 52.8197 100.157 53.2663 100.07L55.2463 99.68V100.34L53.6363 100.67C53.3097 100.737 53.0663 100.83 52.9063 100.95C52.7463 101.07 52.6663 101.237 52.6663 101.45C52.6663 101.657 52.7463 101.827 52.9063 101.96C53.073 102.087 53.3063 102.15 53.6063 102.15C53.7997 102.15 53.983 102.127 54.1563 102.08C54.3363 102.027 54.4963 101.95 54.6363 101.85C54.7763 101.743 54.8863 101.613 54.9663 101.46C55.0463 101.3 55.0863 101.113 55.0863 100.9V99.52ZM60.9744 97.75H61.8144L59.7344 102.75H58.9344L56.8544 97.75H57.7644L59.3444 101.94L60.9744 97.75ZM65.6527 99.52C65.6527 99.1467 65.5527 98.86 65.3527 98.66C65.1527 98.4533 64.8694 98.35 64.5027 98.35C64.1561 98.35 63.8627 98.4267 63.6227 98.58C63.3827 98.7267 63.2061 98.9667 63.0927 99.3L62.4427 98.9C62.5761 98.5267 62.8227 98.2267 63.1827 98C63.5427 97.7667 63.9894 97.65 64.5227 97.65C64.8827 97.65 65.2094 97.7133 65.5027 97.84C65.7961 97.96 66.0261 98.1467 66.1927 98.4C66.3661 98.6467 66.4527 98.9667 66.4527 99.36V101.78C66.4527 102.02 66.5794 102.14 66.8327 102.14C66.9594 102.14 67.0827 102.123 67.2027 102.09L67.1627 102.72C67.0294 102.787 66.8561 102.82 66.6427 102.82C66.4494 102.82 66.2761 102.783 66.1227 102.71C65.9694 102.637 65.8494 102.527 65.7627 102.38C65.6761 102.227 65.6327 102.037 65.6327 101.81V101.71L65.8327 101.74C65.7527 102 65.6161 102.213 65.4227 102.38C65.2294 102.54 65.0127 102.66 64.7727 102.74C64.5327 102.813 64.2961 102.85 64.0627 102.85C63.7694 102.85 63.4961 102.8 63.2427 102.7C62.9894 102.6 62.7861 102.45 62.6327 102.25C62.4861 102.043 62.4127 101.79 62.4127 101.49C62.4127 101.117 62.5361 100.81 62.7827 100.57C63.0361 100.323 63.3861 100.157 63.8327 100.07L65.8127 99.68V100.34L64.2027 100.67C63.8761 100.737 63.6327 100.83 63.4727 100.95C63.3127 101.07 63.2327 101.237 63.2327 101.45C63.2327 101.657 63.3127 101.827 63.4727 101.96C63.6394 102.087 63.8727 102.15 64.1727 102.15C64.3661 102.15 64.5494 102.127 64.7227 102.08C64.9027 102.027 65.0627 101.95 65.2027 101.85C65.3427 101.743 65.4527 101.613 65.5327 101.46C65.6127 101.3 65.6527 101.113 65.6527 100.9V99.52ZM73.8406 96.05C74.4206 96.05 74.9206 96.17 75.3406 96.41C75.7606 96.6433 76.1106 96.99 76.3906 97.45L75.7206 97.97C75.474 97.5433 75.194 97.2433 74.8806 97.07C74.574 96.89 74.2006 96.8 73.7606 96.8C73.4073 96.8 73.114 96.85 72.8806 96.95C72.654 97.05 72.4873 97.1833 72.3806 97.35C72.274 97.51 72.2206 97.6933 72.2206 97.9C72.2206 98.1333 72.294 98.34 72.4406 98.52C72.5873 98.6933 72.8806 98.83 73.3206 98.93L74.7506 99.25C75.384 99.39 75.824 99.6033 76.0706 99.89C76.324 100.17 76.4506 100.52 76.4506 100.94C76.4506 101.313 76.344 101.647 76.1306 101.94C75.924 102.227 75.6306 102.45 75.2506 102.61C74.8706 102.77 74.424 102.85 73.9106 102.85C73.4306 102.85 73.0073 102.787 72.6406 102.66C72.2806 102.527 71.9706 102.35 71.7106 102.13C71.4506 101.91 71.2373 101.663 71.0706 101.39L71.7706 100.82C71.8973 101.073 72.0606 101.297 72.2606 101.49C72.4606 101.683 72.7006 101.833 72.9806 101.94C73.2673 102.047 73.594 102.1 73.9606 102.1C74.3006 102.1 74.594 102.06 74.8406 101.98C75.094 101.893 75.2873 101.77 75.4206 101.61C75.554 101.443 75.6206 101.243 75.6206 101.01C75.6206 100.797 75.5506 100.607 75.4106 100.44C75.2706 100.267 75.0073 100.137 74.6206 100.05L73.0706 99.7C72.664 99.6067 72.334 99.48 72.0806 99.32C71.834 99.1533 71.654 98.96 71.5406 98.74C71.434 98.5133 71.3806 98.27 71.3806 98.01C71.3806 97.6567 71.4773 97.3333 71.6706 97.04C71.8706 96.74 72.154 96.5 72.5206 96.32C72.894 96.14 73.334 96.05 73.8406 96.05ZM80.0469 97.65C80.3935 97.65 80.6969 97.7033 80.9569 97.81C81.2235 97.9167 81.4535 98.07 81.6469 98.27C81.8402 98.47 81.9969 98.7067 82.1169 98.98L81.3569 99.34C81.2502 99.02 81.0869 98.7767 80.8669 98.61C80.6535 98.4367 80.3735 98.35 80.0269 98.35C79.6935 98.35 79.4069 98.4267 79.1669 98.58C78.9269 98.7267 78.7435 98.9433 78.6169 99.23C78.4902 99.51 78.4269 99.85 78.4269 100.25C78.4269 100.643 78.4902 100.983 78.6169 101.27C78.7435 101.557 78.9269 101.777 79.1669 101.93C79.4069 102.077 79.6935 102.15 80.0269 102.15C80.2869 102.15 80.5102 102.11 80.6969 102.03C80.8902 101.95 81.0469 101.833 81.1669 101.68C81.2935 101.527 81.3802 101.34 81.4269 101.12L82.1669 101.38C82.0535 101.687 81.8969 101.95 81.6969 102.17C81.5035 102.39 81.2669 102.56 80.9869 102.68C80.7135 102.793 80.4002 102.85 80.0469 102.85C79.5802 102.85 79.1635 102.747 78.7969 102.54C78.4302 102.333 78.1435 102.037 77.9369 101.65C77.7302 101.257 77.6269 100.79 77.6269 100.25C77.6269 99.71 77.7302 99.2467 77.9369 98.86C78.1435 98.4667 78.4302 98.1667 78.7969 97.96C79.1635 97.7533 79.5802 97.65 80.0469 97.65ZM83.5726 102.75V97.75H84.2226L84.3326 98.57C84.4726 98.2633 84.6759 98.0333 84.9426 97.88C85.2159 97.7267 85.5459 97.65 85.9326 97.65C86.0192 97.65 86.1126 97.6567 86.2126 97.67C86.3192 97.6833 86.4092 97.71 86.4826 97.75L86.3426 98.48C86.2692 98.4533 86.1892 98.4333 86.1026 98.42C86.0159 98.4067 85.8926 98.4 85.7326 98.4C85.5259 98.4 85.3159 98.46 85.1026 98.58C84.8959 98.7 84.7226 98.8833 84.5826 99.13C84.4426 99.37 84.3726 99.6767 84.3726 100.05V102.75H83.5726ZM88.0546 96.79C87.8746 96.79 87.7279 96.7367 87.6146 96.63C87.5079 96.5167 87.4546 96.37 87.4546 96.19C87.4546 96.01 87.5079 95.8667 87.6146 95.76C87.7279 95.6467 87.8746 95.59 88.0546 95.59C88.2346 95.59 88.3779 95.6467 88.4846 95.76C88.5979 95.8667 88.6546 96.01 88.6546 96.19C88.6546 96.37 88.5979 96.5167 88.4846 96.63C88.3779 96.7367 88.2346 96.79 88.0546 96.79ZM88.4546 97.75V102.75H87.6546V97.75H88.4546ZM90.3109 104.85V97.75H91.0109L91.0809 98.97L90.9709 98.83C91.0575 98.5967 91.1875 98.3933 91.3609 98.22C91.5342 98.04 91.7442 97.9 91.9909 97.8C92.2375 97.7 92.5042 97.65 92.7909 97.65C93.1975 97.65 93.5709 97.7533 93.9109 97.96C94.2575 98.1667 94.5342 98.4633 94.7409 98.85C94.9475 99.2367 95.0509 99.7033 95.0509 100.25C95.0509 100.79 94.9442 101.257 94.7309 101.65C94.5242 102.037 94.2475 102.333 93.9009 102.54C93.5542 102.747 93.1742 102.85 92.7609 102.85C92.3475 102.85 91.9842 102.75 91.6709 102.55C91.3642 102.343 91.1442 102.083 91.0109 101.77L91.1109 101.62V104.85H90.3109ZM92.6809 102.15C93.1742 102.15 93.5575 101.977 93.8309 101.63C94.1109 101.283 94.2509 100.823 94.2509 100.25C94.2509 99.6767 94.1142 99.2167 93.8409 98.87C93.5742 98.5233 93.1975 98.35 92.7109 98.35C92.3909 98.35 92.1109 98.43 91.8709 98.59C91.6309 98.7433 91.4442 98.9633 91.3109 99.25C91.1775 99.53 91.1109 99.8633 91.1109 100.25C91.1109 100.63 91.1742 100.963 91.3009 101.25C91.4342 101.537 91.6175 101.76 91.8509 101.92C92.0909 102.073 92.3675 102.15 92.6809 102.15ZM97.6725 96.33V101.37C97.6725 101.617 97.7425 101.8 97.8825 101.92C98.0225 102.04 98.2025 102.1 98.4225 102.1C98.6158 102.1 98.7825 102.067 98.9225 102C99.0625 101.933 99.1892 101.843 99.3025 101.73L99.5825 102.4C99.4292 102.54 99.2458 102.65 99.0325 102.73C98.8258 102.81 98.5858 102.85 98.3125 102.85C98.0592 102.85 97.8225 102.807 97.6025 102.72C97.3825 102.627 97.2058 102.483 97.0725 102.29C96.9458 102.09 96.8792 101.83 96.8725 101.51V96.55L97.6725 96.33ZM99.4925 97.75V98.44H95.8725V97.75H99.4925Z" fill="white"/>
<rect x="35.25" y="82.75" width="75" height="34" rx="3.5" stroke="url(#paint3_linear_15117_23478)"/>
<g filter="url(#filter0_bd_15117_23478)">
<rect x="45.25" y="54.5" width="50" height="33" rx="4" fill="url(#paint4_linear_15117_23478)" fill-opacity="0.05" shape-rendering="crispEdges"/>
<rect x="45.75" y="55" width="49" height="32" rx="3.5" stroke="url(#paint5_linear_15117_23478)" shape-rendering="crispEdges"/>
</g>
<g filter="url(#filter1_bd_15117_23478)">
<rect x="79.25" y="111" width="57" height="34" rx="4" fill="url(#paint6_linear_15117_23478)" fill-opacity="0.05" shape-rendering="crispEdges"/>
<path d="M103.016 131H102.166L101.466 129.17H98.4758L97.7758 131H96.9358L99.5058 124.4H100.456L103.016 131ZM98.7658 128.42H101.176L99.9658 125.17L98.7658 128.42ZM105.187 131L103.237 124.4H104.067L105.697 130.27L107.247 124.4H108.157L109.707 130.29L111.337 124.4H112.127L110.187 131H109.197L108.027 126.72L107.687 125.23H107.677L107.337 126.72L106.177 131H105.187ZM115.618 124.3C116.198 124.3 116.698 124.42 117.118 124.66C117.538 124.893 117.888 125.24 118.168 125.7L117.498 126.22C117.251 125.793 116.971 125.493 116.658 125.32C116.351 125.14 115.978 125.05 115.538 125.05C115.185 125.05 114.891 125.1 114.658 125.2C114.431 125.3 114.265 125.433 114.158 125.6C114.051 125.76 113.998 125.943 113.998 126.15C113.998 126.383 114.071 126.59 114.218 126.77C114.365 126.943 114.658 127.08 115.098 127.18L116.528 127.5C117.161 127.64 117.601 127.853 117.848 128.14C118.101 128.42 118.228 128.77 118.228 129.19C118.228 129.563 118.121 129.897 117.908 130.19C117.701 130.477 117.408 130.7 117.028 130.86C116.648 131.02 116.201 131.1 115.688 131.1C115.208 131.1 114.785 131.037 114.418 130.91C114.058 130.777 113.748 130.6 113.488 130.38C113.228 130.16 113.015 129.913 112.848 129.64L113.548 129.07C113.675 129.323 113.838 129.547 114.038 129.74C114.238 129.933 114.478 130.083 114.758 130.19C115.045 130.297 115.371 130.35 115.738 130.35C116.078 130.35 116.371 130.31 116.618 130.23C116.871 130.143 117.065 130.02 117.198 129.86C117.331 129.693 117.398 129.493 117.398 129.26C117.398 129.047 117.328 128.857 117.188 128.69C117.048 128.517 116.785 128.387 116.398 128.3L114.848 127.95C114.441 127.857 114.111 127.73 113.858 127.57C113.611 127.403 113.431 127.21 113.318 126.99C113.211 126.763 113.158 126.52 113.158 126.26C113.158 125.907 113.255 125.583 113.448 125.29C113.648 124.99 113.931 124.75 114.298 124.57C114.671 124.39 115.111 124.3 115.618 124.3Z" fill="white"/>
<rect x="79.75" y="111.5" width="56" height="33" rx="3.5" stroke="url(#paint7_linear_15117_23478)" shape-rendering="crispEdges"/>
</g>
<defs>
<filter id="filter0_bd_15117_23478" x="38.25" y="47.5" width="64" height="47" filterUnits="userSpaceOnUse" color-interpolation-filters="sRGB">
<feFlood flood-opacity="0" result="BackgroundImageFix"/>
<feGaussianBlur in="BackgroundImageFix" stdDeviation="3.5"/>
<feComposite in2="SourceAlpha" operator="in" result="effect1_backgroundBlur_15117_23478"/>
<feColorMatrix in="SourceAlpha" type="matrix" values="0 0 0 0 0 0 0 0 0 0 0 0 0 0 0 0 0 0 127 0" result="hardAlpha"/>
<feOffset dx="-1" dy="1"/>
<feGaussianBlur stdDeviation="2"/>
<feComposite in2="hardAlpha" operator="out"/>
<feColorMatrix type="matrix" values="0 0 0 0 0 0 0 0 0 0 0 0 0 0 0 0 0 0 0.25 0"/>
<feBlend mode="normal" in2="effect1_backgroundBlur_15117_23478" result="effect2_dropShadow_15117_23478"/>
<feBlend mode="normal" in="SourceGraphic" in2="effect2_dropShadow_15117_23478" result="shape"/>
</filter>
<filter id="filter1_bd_15117_23478" x="72.25" y="104" width="71" height="48" filterUnits="userSpaceOnUse" color-interpolation-filters="sRGB">
<feFlood flood-opacity="0" result="BackgroundImageFix"/>
<feGaussianBlur in="BackgroundImageFix" stdDeviation="3.5"/>
<feComposite in2="SourceAlpha" operator="in" result="effect1_backgroundBlur_15117_23478"/>
<feColorMatrix in="SourceAlpha" type="matrix" values="0 0 0 0 0 0 0 0 0 0 0 0 0 0 0 0 0 0 127 0" result="hardAlpha"/>
<feOffset dx="-1" dy="1"/>
<feGaussianBlur stdDeviation="2"/>
<feComposite in2="hardAlpha" operator="out"/>
<feColorMatrix type="matrix" values="0 0 0 0 0 0 0 0 0 0 0 0 0 0 0 0 0 0 0.25 0"/>
<feBlend mode="normal" in2="effect1_backgroundBlur_15117_23478" result="effect2_dropShadow_15117_23478"/>
<feBlend mode="normal" in="SourceGraphic" in2="effect2_dropShadow_15117_23478" result="shape"/>
</filter>
<linearGradient id="paint0_linear_15117_23478" x1="129.922" y1="16.4541" x2="156.745" y2="72.6243" gradientUnits="userSpaceOnUse">
<stop stop-color="#5FF088"/>
<stop offset="1" stop-color="#376262" stop-opacity="0.29"/>
</linearGradient>
<linearGradient id="paint1_linear_15117_23478" x1="130.21" y1="14.625" x2="106.717" y2="64.8957" gradientUnits="userSpaceOnUse">
<stop offset="0.0416667" stop-color="white" stop-opacity="0.26"/>
<stop offset="1" stop-color="white" stop-opacity="0"/>
</linearGradient>
<linearGradient id="paint2_linear_15117_23478" x1="91.9798" y1="53.8325" x2="122.299" y2="123.977" gradientUnits="userSpaceOnUse">
<stop stop-color="#5FF088"/>
<stop offset="1" stop-color="#376262" stop-opacity="0.29"/>
</linearGradient>
<linearGradient id="paint3_linear_15117_23478" x1="92.3629" y1="51.625" x2="65.8398" y2="114.327" gradientUnits="userSpaceOnUse">
<stop offset="0.0416667" stop-color="white" stop-opacity="0.26"/>
<stop offset="1" stop-color="white" stop-opacity="0"/>
</linearGradient>
<linearGradient id="paint4_linear_15117_23478" x1="84.3837" y1="53.7165" x2="76.9656" y2="81.8222" gradientUnits="userSpaceOnUse">
<stop stop-color="#04D4FF"/>
<stop offset="1" stop-color="#46D0B4"/>
</linearGradient>
<linearGradient id="paint5_linear_15117_23478" x1="60.4441" y1="32.3491" x2="51.8501" y2="84.4659" gradientUnits="userSpaceOnUse">
<stop offset="0.0416667" stop-color="white" stop-opacity="0.26"/>
<stop offset="1" stop-color="white" stop-opacity="0"/>
</linearGradient>
<linearGradient id="paint6_linear_15117_23478" x1="123.862" y1="110.193" x2="116.872" y2="139.5" gradientUnits="userSpaceOnUse">
<stop stop-color="white"/>
<stop offset="1" stop-color="#46D0B4"/>
</linearGradient>
<linearGradient id="paint7_linear_15117_23478" x1="122.46" y1="81.25" x2="92.1997" y2="136.48" gradientUnits="userSpaceOnUse">
<stop offset="0.0416667" stop-color="white" stop-opacity="0.26"/>
<stop offset="1" stop-color="white" stop-opacity="0"/>
</linearGradient>
</defs>
</svg>
