<svg width="184" height="172" viewBox="0 0 184 172" fill="none" xmlns="http://www.w3.org/2000/svg">
<g filter="url(#filter0_f_11665_166440)">
<ellipse cx="92" cy="86" rx="43" ry="36.5" fill="url(#paint0_linear_11665_166440)" fill-opacity="0.15"/>
</g>
<mask id="path-2-inside-1_11665_166440" fill="white">
<path d="M60.5 72.416H65.8501C66.5596 72.416 67.24 72.6979 67.7417 73.1995C68.2434 73.7012 68.5252 74.3816 68.5252 75.0911V107.192C68.5252 107.901 68.2434 108.582 67.7417 109.083C67.24 109.585 66.5596 109.867 65.8501 109.867H60.5"/>
</mask>
<path d="M60.5 72.416H65.8501C66.5596 72.416 67.24 72.6979 67.7417 73.1995C68.2434 73.7012 68.5252 74.3816 68.5252 75.0911V107.192C68.5252 107.901 68.2434 108.582 67.7417 109.083C67.24 109.585 66.5596 109.867 65.8501 109.867H60.5" fill="url(#paint1_linear_11665_166440)"/>
<path d="M60.5 71.416C59.9477 71.416 59.5 71.8637 59.5 72.416C59.5 72.9683 59.9477 73.416 60.5 73.416V71.416ZM68.5252 75.0911H69.5252H68.5252ZM68.5252 107.192H69.5252H68.5252ZM60.5 108.867C59.9477 108.867 59.5 109.315 59.5 109.867C59.5 110.419 59.9477 110.867 60.5 110.867V108.867ZM60.5 73.416H65.8501V71.416H60.5V73.416ZM65.8501 73.416C66.2944 73.416 66.7204 73.5925 67.0346 73.9066L68.4488 72.4924C67.7596 71.8032 66.8248 71.416 65.8501 71.416V73.416ZM67.0346 73.9066C67.3487 74.2208 67.5252 74.6468 67.5252 75.0911H69.5252C69.5252 74.1164 69.138 73.1816 68.4488 72.4924L67.0346 73.9066ZM67.5252 75.0911V107.192H69.5252V75.0911H67.5252ZM67.5252 107.192C67.5252 107.636 67.3487 108.062 67.0346 108.376L68.4488 109.79C69.138 109.101 69.5252 108.167 69.5252 107.192H67.5252ZM67.0346 108.376C66.7204 108.69 66.2944 108.867 65.8501 108.867V110.867C66.8248 110.867 67.7596 110.48 68.4488 109.79L67.0346 108.376ZM65.8501 108.867H60.5V110.867H65.8501V108.867Z" fill="url(#paint2_linear_11665_166440)" mask="url(#path-2-inside-1_11665_166440)"/>
<mask id="path-4-inside-2_11665_166440" fill="white">
<path d="M68.5264 101.158C88.1587 111.125 87.201 109.812 104.011 109.812C111.052 109.812 114.599 105.224 116.669 98.5018V98.459L121.771 81.3386V81.3065C122.012 80.5094 122.064 79.6671 121.922 78.8465C121.78 78.026 121.449 77.2498 120.954 76.5799C120.459 75.91 119.815 75.3647 119.073 74.9876C118.33 74.6104 117.51 74.4118 116.678 74.4075H103.57C102.751 74.4076 101.943 74.2196 101.208 73.8582C100.473 73.4968 99.8312 72.9715 99.3314 72.3228C98.8316 71.6742 98.4873 70.9194 98.3252 70.1168C98.163 69.3141 98.1873 68.4849 98.3961 67.6931L100.756 58.7477C101.029 57.7075 100.928 56.6043 100.47 55.6311C100.012 54.658 99.2263 53.8769 98.2504 53.4247C97.2746 52.9725 96.1708 52.878 95.1322 53.1576C94.0937 53.4373 93.1866 54.0734 92.5698 54.9544L79.4941 73.4793C79.0002 74.1793 78.3454 74.7505 77.5847 75.1448C76.8241 75.5391 75.9798 75.745 75.1231 75.745H68.5264"/>
</mask>
<path d="M68.5264 101.158C88.1587 111.125 87.201 109.812 104.011 109.812C111.052 109.812 114.599 105.224 116.669 98.5018V98.459L121.771 81.3386V81.3065C122.012 80.5094 122.064 79.6671 121.922 78.8465C121.78 78.026 121.449 77.2498 120.954 76.5799C120.459 75.91 119.815 75.3647 119.073 74.9876C118.33 74.6104 117.51 74.4118 116.678 74.4075H103.57C102.751 74.4076 101.943 74.2196 101.208 73.8582C100.473 73.4968 99.8312 72.9715 99.3314 72.3228C98.8316 71.6742 98.4873 70.9194 98.3252 70.1168C98.163 69.3141 98.1873 68.4849 98.3961 67.6931L100.756 58.7477C101.029 57.7075 100.928 56.6043 100.47 55.6311C100.012 54.658 99.2263 53.8769 98.2504 53.4247C97.2746 52.9725 96.1708 52.878 95.1322 53.1576C94.0937 53.4373 93.1866 54.0734 92.5698 54.9544L79.4941 73.4793C79.0002 74.1793 78.3454 74.7505 77.5847 75.1448C76.8241 75.5391 75.9798 75.745 75.1231 75.745H68.5264" fill="url(#paint3_linear_11665_166440)"/>
<path d="M68.9791 100.266C68.4866 100.016 67.8847 100.213 67.6347 100.705C67.3847 101.198 67.5812 101.8 68.0737 102.05L68.9791 100.266ZM116.669 98.5018L117.625 98.7961C117.655 98.7008 117.669 98.6016 117.669 98.5018H116.669ZM116.669 98.459L115.711 98.1734C115.684 98.2661 115.669 98.3623 115.669 98.459H116.669ZM121.771 81.3386L122.729 81.6242C122.757 81.5315 122.771 81.4353 122.771 81.3386H121.771ZM121.771 81.3065L120.814 81.017C120.785 81.1109 120.771 81.2084 120.771 81.3065H121.771ZM116.678 74.4075L116.683 73.4075H116.678V74.4075ZM103.57 74.4075V73.4075H103.57L103.57 74.4075ZM98.3961 67.6931L97.4292 67.4381L97.4292 67.4381L98.3961 67.6931ZM100.756 58.7477L101.722 59.0027L101.723 59.002L100.756 58.7477ZM92.5698 54.9544L93.3868 55.5311L93.389 55.5279L92.5698 54.9544ZM79.4941 73.4793L78.6771 72.9026L78.677 72.9028L79.4941 73.4793ZM75.1231 75.745V76.745H75.1232L75.1231 75.745ZM68.5264 74.745C67.9741 74.745 67.5264 75.1928 67.5264 75.745C67.5264 76.2973 67.9741 76.745 68.5264 76.745V74.745ZM68.0737 102.05C77.8585 107.018 82.65 109.251 87.1191 110.201C91.5711 111.147 95.7135 110.812 104.011 110.812V108.812C95.4985 108.812 91.7148 109.133 87.535 108.245C83.3723 107.36 78.8265 105.266 68.9791 100.266L68.0737 102.05ZM104.011 110.812C107.776 110.812 110.68 109.574 112.904 107.392C115.098 105.239 116.567 102.233 117.625 98.7961L115.714 98.2074C114.702 101.493 113.361 104.142 111.504 105.964C109.677 107.756 107.287 108.812 104.011 108.812V110.812ZM117.669 98.5018V98.459H115.669V98.5018H117.669ZM117.628 98.7446L122.729 81.6242L120.812 81.053L115.711 98.1734L117.628 98.7446ZM122.771 81.3386V81.3065H120.771V81.3386H122.771ZM122.728 81.596C123.014 80.65 123.076 79.6502 122.907 78.6762L120.936 79.0168C121.052 79.684 121.01 80.3689 120.814 81.017L122.728 81.596ZM122.907 78.6762C122.739 77.7023 122.346 76.7811 121.759 75.9859L120.15 77.1738C120.552 77.7185 120.821 78.3496 120.936 79.0168L122.907 78.6762ZM121.759 75.9859C121.172 75.1908 120.407 74.5436 119.526 74.096L118.62 75.8791C119.224 76.1858 119.747 76.6291 120.15 77.1738L121.759 75.9859ZM119.526 74.096C118.645 73.6484 117.671 73.4126 116.683 73.4075L116.672 75.4075C117.349 75.411 118.016 75.5725 118.62 75.8791L119.526 74.096ZM116.678 73.4075H103.57V75.4075H116.678V73.4075ZM103.57 73.4075C102.904 73.4075 102.247 73.2547 101.649 72.9609L100.767 74.7555C101.639 75.1845 102.598 75.4076 103.57 75.4075L103.57 73.4075ZM101.649 72.9609C101.052 72.667 100.53 72.2399 100.124 71.7125L98.5392 72.9332C99.1325 73.7031 99.8945 74.3265 100.767 74.7555L101.649 72.9609ZM100.124 71.7125C99.7171 71.1851 99.4372 70.5714 99.3054 69.9188L97.345 70.3148C97.5374 71.2675 97.946 72.1633 98.5392 72.9332L100.124 71.7125ZM99.3054 69.9188C99.1735 69.2661 99.1933 68.5919 99.3631 67.9481L97.4292 67.4381C97.1813 68.3779 97.1525 69.3621 97.345 70.3148L99.3054 69.9188ZM99.3631 67.9481L101.722 59.0027L99.7886 58.4927L97.4292 67.4381L99.3631 67.9481ZM101.723 59.002C102.056 57.7348 101.933 56.3908 101.375 55.2053L99.5652 56.0569C99.9232 56.8177 100.002 57.6802 99.7884 58.4934L101.723 59.002ZM101.375 55.2053C100.817 54.0198 99.8597 53.0683 98.6709 52.5174L97.83 54.332C98.5929 54.6856 99.2071 55.2962 99.5652 56.0569L101.375 55.2053ZM98.6709 52.5174C97.4821 51.9665 96.1374 51.8513 94.8722 52.192L95.3923 54.1232C96.2042 53.9046 97.0671 53.9785 97.83 54.332L98.6709 52.5174ZM94.8722 52.192C93.607 52.5327 92.502 53.3076 91.7506 54.381L93.389 55.5279C93.8713 54.8391 94.5804 54.3419 95.3923 54.1232L94.8722 52.192ZM91.7529 54.3778L78.6771 72.9026L80.3111 74.0559L93.3868 55.5311L91.7529 54.3778ZM78.677 72.9028C78.2754 73.472 77.743 73.9364 77.1245 74.257L78.0449 76.0326C78.9477 75.5646 79.725 74.8867 80.3112 74.0558L78.677 72.9028ZM77.1245 74.257C76.506 74.5776 75.8196 74.745 75.123 74.745L75.1232 76.745C76.1401 76.7449 77.1421 76.5006 78.0449 76.0326L77.1245 74.257ZM75.1231 74.745H68.5264V76.745H75.1231V74.745Z" fill="url(#paint4_linear_11665_166440)" mask="url(#path-4-inside-2_11665_166440)"/>
<defs>
<filter id="filter0_f_11665_166440" x="0" y="0.5" width="184" height="171" filterUnits="userSpaceOnUse" color-interpolation-filters="sRGB">
<feFlood flood-opacity="0" result="BackgroundImageFix"/>
<feBlend mode="normal" in="SourceGraphic" in2="BackgroundImageFix" result="shape"/>
<feGaussianBlur stdDeviation="24.5" result="effect1_foregroundBlur_11665_166440"/>
</filter>
<linearGradient id="paint0_linear_11665_166440" x1="50.4754" y1="49.5" x2="119.642" y2="133.879" gradientUnits="userSpaceOnUse">
<stop stop-color="#E36CFD"/>
<stop offset="0.1563" stop-color="#0058FB"/>
<stop offset="0.4063" stop-color="#2EC0FB"/>
<stop offset="0.6875" stop-color="#14F7EF"/>
<stop offset="0.8438" stop-color="#F9E033"/>
<stop offset="0.9844" stop-color="#FAA143"/>
</linearGradient>
<linearGradient id="paint1_linear_11665_166440" x1="55.5" y1="79.5" x2="78.5" y2="110" gradientUnits="userSpaceOnUse">
<stop stop-color="#53ABAC" stop-opacity="0.51"/>
<stop offset="1" stop-color="#002A3E" stop-opacity="0"/>
</linearGradient>
<linearGradient id="paint2_linear_11665_166440" x1="61" y1="105.5" x2="51.0467" y2="84.1131" gradientUnits="userSpaceOnUse">
<stop stop-color="white" stop-opacity="0.26"/>
<stop offset="1" stop-color="white" stop-opacity="0"/>
</linearGradient>
<linearGradient id="paint3_linear_11665_166440" x1="77.7973" y1="51.4812" x2="89.3896" y2="110.02" gradientUnits="userSpaceOnUse">
<stop stop-color="#53ABAC"/>
<stop offset="1" stop-color="#1E201F" stop-opacity="0"/>
</linearGradient>
<linearGradient id="paint4_linear_11665_166440" x1="112" y1="69" x2="76.9451" y2="54.9059" gradientUnits="userSpaceOnUse">
<stop stop-color="white" stop-opacity="0.26"/>
<stop offset="1" stop-color="white" stop-opacity="0"/>
</linearGradient>
</defs>
</svg>
