<svg width="25" height="25" viewBox="0 0 25 25" fill="none" xmlns="http://www.w3.org/2000/svg">
<path d="M8.18945 7.52163C8.18945 6.59166 8.18945 6.10504 8.29168 5.72354C8.56908 4.68827 9.37772 3.87962 10.413 3.60222C10.7945 3.5 11.2595 3.5 12.1895 3.5C13.1194 3.5 13.5844 3.5 13.9659 3.60222C15.0012 3.87962 15.8098 4.68827 16.0872 5.72354C16.1895 6.10504 16.1895 6.59166 16.1895 7.52163M12.1895 15.5V17.5M3.21275 12.4607C3.44349 14.7296 5.35972 16.5 7.68945 16.5H16.6895C19.0192 16.5 20.9354 14.7296 21.1662 12.4607M3.21275 12.4607C3.18945 12.9943 3.18945 13.6501 3.18945 14.5C3.18945 16.3613 3.18945 17.2919 3.43417 18.0451C3.92876 19.5673 5.12218 20.7607 6.64437 21.2553C7.39753 21.5 8.32817 21.5 10.1895 21.5H14.1895C16.0507 21.5 16.9814 21.5 17.7345 21.2553C19.2567 20.7607 20.4501 19.5673 20.9447 18.0451C21.1895 17.2919 21.1895 16.3613 21.1895 14.5C21.1895 13.6501 21.1895 12.9943 21.1662 12.4607M3.21275 12.4607C3.24048 11.8258 3.30119 11.3642 3.43417 10.9549C3.92876 9.43273 5.12218 8.23931 6.64437 7.74472C7.39753 7.5 8.32817 7.5 10.1895 7.5H14.1895C16.0507 7.5 16.9814 7.5 17.7345 7.74472C19.2567 8.23931 20.4501 9.43273 20.9447 10.9549C21.0777 11.3642 21.1384 11.8258 21.1662 12.4607" stroke="#807984" stroke-linecap="round" stroke-linejoin="round"/>
</svg>
