<svg width="25" height="25" viewBox="0 0 25 25" fill="none" xmlns="http://www.w3.org/2000/svg">
<path d="M7.18945 6.5H10.1895M7.18945 10.5H10.1895M7.18945 14.5H10.1895M7.18945 18.5H10.1895M17.1895 14.5H18.1895M17.1895 18.5H18.1895M12.5895 22.5C13.1495 22.5 13.4295 22.5 13.6434 22.391C13.8316 22.2951 13.9846 22.1422 14.0805 21.954C14.1895 21.7401 14.1895 21.4601 14.1895 20.9V10.5M12.5895 22.5H19.5895C20.1495 22.5 20.4295 22.5 20.6434 22.391C20.8316 22.2951 20.9846 22.1422 21.0805 21.954C21.1895 21.7401 21.1895 21.4601 21.1895 20.9V13.7C21.1895 12.5799 21.1895 12.0198 20.9715 11.592C20.7797 11.2157 20.4738 10.9097 20.0974 10.718C19.6696 10.5 19.1096 10.5 17.9895 10.5H14.1895M12.5895 22.5H4.78945C4.2294 22.5 3.94937 22.5 3.73546 22.391C3.5473 22.2951 3.39432 22.1422 3.29845 21.954C3.18945 21.7401 3.18945 21.4601 3.18945 20.9V5.7C3.18945 4.5799 3.18945 4.01984 3.40744 3.59202C3.59919 3.21569 3.90515 2.90973 4.28147 2.71799C4.7093 2.5 5.26935 2.5 6.38945 2.5H10.9895C12.1096 2.5 12.6696 2.5 13.0974 2.71799C13.4738 2.90973 13.7797 3.21569 13.9715 3.59202C14.1895 4.01984 14.1895 4.5799 14.1895 5.7V10.5" stroke="#807984" stroke-linecap="round" stroke-linejoin="round"/>
</svg>
