<svg width="25" height="25" viewBox="0 0 25 25" fill="none" xmlns="http://www.w3.org/2000/svg">
<path d="M6.18945 5.5V6.3C6.18945 7.4201 6.18945 7.98016 5.97147 8.40798C5.77972 8.78431 5.47376 9.09027 5.09743 9.28201C4.66961 9.5 4.10956 9.5 2.98945 9.5H2.18945M18.1895 19.5V18.7C18.1895 17.5799 18.1895 17.0198 18.4074 16.592C18.5992 16.2157 18.9051 15.9097 19.2815 15.718C19.7093 15.5 20.2693 15.5 21.3895 15.5H22.1895M18.1895 5.5V6.3C18.1895 7.4201 18.1895 7.98016 18.4074 8.40798C18.5992 8.78431 18.9051 9.09027 19.2815 9.28201C19.7093 9.5 20.2693 9.5 21.3895 9.5H22.1895M6.18945 19.5V18.7C6.18945 17.5799 6.18945 17.0198 5.97147 16.592C5.77972 16.2157 5.47376 15.9097 5.09743 15.718C4.66961 15.5 4.10956 15.5 2.98945 15.5H2.18945M5.38945 19.5H18.9895C20.1096 19.5 20.6696 19.5 21.0974 19.282C21.4738 19.0903 21.7797 18.7843 21.9715 18.408C22.1895 17.9802 22.1895 17.4201 22.1895 16.3V8.7C22.1895 7.5799 22.1895 7.01984 21.9715 6.59202C21.7797 6.21569 21.4738 5.90973 21.0974 5.71799C20.6696 5.5 20.1096 5.5 18.9895 5.5H5.38945C4.26935 5.5 3.7093 5.5 3.28147 5.71799C2.90515 5.90973 2.59919 6.21569 2.40744 6.59202C2.18945 7.01984 2.18945 7.57989 2.18945 8.7V16.3C2.18945 17.4201 2.18945 17.9802 2.40744 18.408C2.59919 18.7843 2.90515 19.0903 3.28147 19.282C3.7093 19.5 4.26935 19.5 5.38945 19.5ZM12.1895 15.5C10.5326 15.5 9.18945 14.1569 9.18945 12.5C9.18945 10.8431 10.5326 9.5 12.1895 9.5C13.8463 9.5 15.1895 10.8431 15.1895 12.5C15.1895 14.1569 13.8463 15.5 12.1895 15.5Z" stroke="#807984" stroke-linecap="round" stroke-linejoin="round"/>
</svg>
