<svg width="25" height="25" viewBox="0 0 25 25" fill="none" xmlns="http://www.w3.org/2000/svg">
<path d="M9.18945 21.5V18.5C9.18945 17.5681 9.18945 17.1022 9.03721 16.7346C8.83422 16.2446 8.44488 15.8552 7.95482 15.6522C7.58728 15.5 7.12134 15.5 6.18945 15.5C5.25757 15.5 4.79163 15.5 4.42409 15.6522C3.93403 15.8552 3.54468 16.2446 3.34169 16.7346C3.18945 17.1022 3.18945 17.5681 3.18945 18.5C3.18945 19.4319 3.18945 19.8978 3.34169 20.2654C3.54468 20.7554 3.93403 21.1448 4.42409 21.3478C4.79163 21.5 5.25757 21.5 6.18945 21.5H9.18945ZM9.18945 21.5H15.1895M9.18945 21.5V12.5C9.18945 11.5681 9.18945 11.1022 9.34169 10.7346C9.54468 10.2446 9.93403 9.85523 10.4241 9.65224C10.7916 9.5 11.2576 9.5 12.1895 9.5C13.1213 9.5 13.5873 9.5 13.9548 9.65224C14.4449 9.85523 14.8342 10.2446 15.0372 10.7346C15.1895 11.1022 15.1895 11.5681 15.1895 12.5V21.5M15.1895 21.5H17.9895C19.1096 21.5 19.6696 21.5 20.0974 21.282C20.4738 21.0903 20.7797 20.7843 20.9715 20.408C21.1895 19.9802 21.1895 19.4201 21.1895 18.3V6.5C21.1895 5.56812 21.1895 5.10218 21.0372 4.73463C20.8342 4.24458 20.4449 3.85523 19.9548 3.65224C19.5873 3.5 19.1213 3.5 18.1895 3.5C17.2576 3.5 16.7916 3.5 16.4241 3.65224C15.934 3.85523 15.5447 4.24458 15.3417 4.73463C15.1895 5.10218 15.1895 5.56812 15.1895 6.5V21.5Z" stroke="#807984" stroke-linecap="round" stroke-linejoin="round"/>
</svg>
