<svg width="25" height="25" viewBox="0 0 25 25" fill="none" xmlns="http://www.w3.org/2000/svg">
<path d="M7.51781 8.69123C6.08429 8.69123 4.9222 7.52914 4.9222 6.09562C4.9222 4.6621 6.08429 3.5 7.51781 3.5C8.95133 3.5 10.1134 4.6621 10.1134 6.09562C10.1134 7.52914 8.95133 8.69123 7.51781 8.69123ZM7.51781 8.69123C9.44912 8.69123 11.1565 9.65 12.1899 11.1175C13.2234 9.65 14.9307 8.69123 16.862 8.69123M7.51781 8.69123C5.58651 8.69123 3.87914 9.65 2.8457 11.1175M16.862 8.69123C15.4285 8.69123 14.2664 7.52914 14.2664 6.09562C14.2664 4.6621 15.4285 3.5 16.862 3.5C18.2956 3.5 19.4576 4.6621 19.4576 6.09562C19.4576 7.52914 18.2956 8.69123 16.862 8.69123ZM16.862 8.69123C18.7933 8.69123 20.5007 9.65 21.5341 11.1175M7.51781 19.0737C6.08429 19.0737 4.9222 17.9116 4.9222 16.4781C4.9222 15.0446 6.08429 13.8825 7.51781 13.8825C8.95133 13.8825 10.1134 15.0446 10.1134 16.4781C10.1134 17.9116 8.95133 19.0737 7.51781 19.0737ZM7.51781 19.0737C9.44912 19.0737 11.1565 20.0325 12.1899 21.5C13.2234 20.0325 14.9307 19.0737 16.862 19.0737M7.51781 19.0737C5.58651 19.0737 3.87914 20.0325 2.8457 21.5M16.862 19.0737C15.4285 19.0737 14.2664 17.9116 14.2664 16.4781C14.2664 15.0446 15.4285 13.8825 16.862 13.8825C18.2956 13.8825 19.4576 15.0446 19.4576 16.4781C19.4576 17.9116 18.2956 19.0737 16.862 19.0737ZM16.862 19.0737C18.7933 19.0737 20.5007 20.0325 21.5341 21.5" stroke="#807984" stroke-linecap="round" stroke-linejoin="round"/>
</svg>
