<svg width="25" height="25" viewBox="0 0 25 25" fill="none" xmlns="http://www.w3.org/2000/svg">
<path d="M5.18945 3.5L5.18945 21.5M6.66135 14.0167C8.44596 13.4141 10.4031 13.604 12.0386 14.5385C13.6232 15.4441 15.5125 15.6518 17.2561 15.1121L18.5654 14.7068C18.9365 14.592 19.1895 14.2488 19.1895 13.8604V4.98517C19.1895 4.09568 17.5231 4.91833 17.1443 5.03557C15.4789 5.55107 13.6718 5.3202 12.1895 4.40255C10.7071 3.48491 8.90003 3.25404 7.23459 3.76954L5.78831 4.21719C5.43223 4.32741 5.18945 4.65669 5.18945 5.02944V13.9561C5.18945 14.7118 6.32742 14.1294 6.66135 14.0167Z" stroke="#807984" stroke-linecap="round" stroke-linejoin="round"/>
</svg>
