<svg width="25" height="25" viewBox="0 0 25 25" fill="none" xmlns="http://www.w3.org/2000/svg">
<path d="M3.24438 11.5H5.18945C6.29402 11.5 7.18945 12.3954 7.18945 13.5V14.5C7.18945 15.6046 8.08488 16.5 9.18945 16.5C10.294 16.5 11.1895 17.3954 11.1895 18.5V21.4451M8.18945 4.43552V6C8.18945 7.38071 9.30874 8.5 10.6895 8.5H11.1895C12.294 8.5 13.1895 9.39543 13.1895 10.5C13.1895 11.6046 14.0849 12.5 15.1895 12.5C16.294 12.5 17.1895 11.6046 17.1895 10.5C17.1895 9.39543 18.0849 8.5 19.1895 8.5L20.2539 8.5M15.1895 20.9879V18.5C15.1895 17.3954 16.0849 16.5 17.1895 16.5H20.2539M21.1895 12.5C21.1895 17.4706 17.16 21.5 12.1895 21.5C7.21889 21.5 3.18945 17.4706 3.18945 12.5C3.18945 7.52944 7.21889 3.5 12.1895 3.5C17.16 3.5 21.1895 7.52944 21.1895 12.5Z" stroke="#807984" stroke-linecap="round" stroke-linejoin="round"/>
</svg>
