<svg width="18" height="18" viewBox="0 0 18 18" fill="none" xmlns="http://www.w3.org/2000/svg">
<path d="M5.86172 2.42664C6.28311 1.60802 6.4938 1.19871 6.77684 1.06609C7.02327 0.950626 7.30826 0.950626 7.55469 1.06609C7.83774 1.19871 8.04843 1.60802 8.46981 2.42664L9.56219 4.54881C9.6352 4.69064 9.6717 4.76155 9.71892 4.82417C9.76083 4.87976 9.80895 4.9304 9.86233 4.97509C9.92246 5.02545 9.99142 5.06552 10.1293 5.14566L12.3169 6.41683C13.0336 6.83333 13.392 7.04159 13.5125 7.31303C13.6176 7.54983 13.6176 7.82004 13.5125 8.05684C13.392 8.32829 13.0336 8.53654 12.3169 8.95304L10.1293 10.2242C9.99142 10.3044 9.92246 10.3444 9.86233 10.3948C9.80895 10.4395 9.76083 10.4901 9.71892 10.5457C9.6717 10.6083 9.6352 10.6792 9.56219 10.8211L8.46981 12.9432C8.04843 13.7619 7.83774 14.1712 7.55469 14.3038C7.30826 14.4192 7.02327 14.4192 6.77684 14.3038C6.4938 14.1712 6.28311 13.7619 5.86172 12.9432L4.76934 10.8211C4.69634 10.6792 4.65984 10.6083 4.61262 10.5457C4.5707 10.4901 4.52259 10.4395 4.46921 10.3948C4.40908 10.3444 4.34012 10.3044 4.2022 10.2242L2.01468 8.95304C1.29793 8.53654 0.939558 8.32829 0.819066 8.05684C0.713957 7.82004 0.713957 7.54983 0.819066 7.31303C0.939558 7.04159 1.29793 6.83333 2.01468 6.41683L4.2022 5.14566C4.34012 5.06552 4.40908 5.02545 4.46921 4.97509C4.52259 4.9304 4.5707 4.87976 4.61262 4.82417C4.65984 4.76155 4.69634 4.69064 4.76934 4.54881L5.86172 2.42664Z" stroke="#282629" stroke-width="1.5" stroke-linecap="round" stroke-linejoin="round"/>
<path d="M14.0037 14.9323C13.7711 14.6415 13.6548 14.4961 13.6112 14.3285C13.5729 14.181 13.5729 14.0222 13.6112 13.8747C13.6548 13.7071 13.7711 13.5617 14.0037 13.271L14.7512 12.3365C14.9839 12.0457 15.1002 11.9003 15.2343 11.8459C15.3522 11.798 15.4793 11.798 15.5973 11.8459C15.7314 11.9003 15.8477 12.0457 16.0803 12.3365L16.8279 13.271C17.0605 13.5617 17.1768 13.7071 17.2204 13.8747C17.2587 14.0222 17.2587 14.181 17.2204 14.3285C17.1768 14.4961 17.0605 14.6415 16.8279 14.9323L16.0803 15.8667C15.8477 16.1575 15.7314 16.3029 15.5973 16.3573C15.4793 16.4052 15.3522 16.4052 15.2343 16.3573C15.1002 16.3029 14.9839 16.1575 14.7512 15.8667L14.0037 14.9323Z" stroke="#282629" stroke-width="1.5" stroke-linecap="round" stroke-linejoin="round"/>
</svg>
