<svg width="25" height="25" viewBox="0 0 25 25" fill="none" xmlns="http://www.w3.org/2000/svg">
<path d="M4.70545 13.5691L7.5565 16.4202M13.2586 5.016L15.3969 7.15428M17.2659 13.8384L20.6907 17.2782C20.7221 17.3098 20.7379 17.3256 20.7514 17.3399C21.2508 17.8671 21.332 18.6667 20.9487 19.2842C20.9383 19.301 20.926 19.3196 20.9016 19.3569L20.8677 19.4085C20.385 20.1449 19.7542 20.7717 19.016 21.2487C18.3932 21.651 17.5755 21.5629 17.0519 21.037L13.5672 17.5371M17.2659 13.8384L20.2437 10.8606C21.042 10.0623 21.4412 9.6631 21.5908 9.20279C21.7223 8.79789 21.7223 8.36173 21.5908 7.95683C21.4412 7.49652 21.042 7.09734 20.2437 6.29897L18.3905 4.44579C17.5921 3.64742 17.1929 3.24823 16.7326 3.09867C16.3277 2.96711 15.8916 2.96711 15.4867 3.09867C15.0264 3.24823 14.6272 3.64742 13.8288 4.44579L10.8651 7.40948M17.2659 13.8384L10.8651 7.40948M10.8651 7.40948L7.71738 4.24792C7.44201 3.97134 7.30432 3.83305 7.14362 3.73424C7.00115 3.64665 6.84581 3.58216 6.68333 3.54318C6.50006 3.4992 6.30535 3.49951 5.91592 3.50013L3.18927 3.50449L3.25543 6.18491C3.26473 6.56186 3.26938 6.75034 3.31495 6.92737C3.35535 7.08435 3.41934 7.23423 3.50471 7.37185C3.60098 7.52704 3.73371 7.66035 3.99917 7.92698L7.16644 11.1082M7.16644 11.1082L4.13524 14.1394C3.33687 14.9377 2.93769 15.3369 2.78812 15.7972C2.65656 16.2021 2.65656 16.6383 2.78812 17.0432C2.93769 17.5035 3.33687 17.9027 4.13524 18.701L5.98842 20.5542C6.78679 21.3526 7.18597 21.7518 7.64628 21.9013C8.05118 22.0329 8.48734 22.0329 8.89224 21.9013C9.35255 21.7518 9.75173 21.3526 10.5501 20.5542L13.5672 17.5371M7.16644 11.1082L13.5672 17.5371" stroke="#807984" stroke-linecap="round" stroke-linejoin="round"/>
</svg>
