<svg width="25" height="25" viewBox="0 0 25 25" fill="none" xmlns="http://www.w3.org/2000/svg">
<path d="M16.1895 7.5C16.1895 9.70914 14.3986 11.5 12.1895 11.5C9.98031 11.5 8.18945 9.70914 8.18945 7.5C8.18945 5.29086 9.98031 3.5 12.1895 3.5C14.3986 3.5 16.1895 5.29086 16.1895 7.5Z" stroke="#807984" stroke-linecap="round" stroke-linejoin="round"/>
<path d="M6.0554 21.5H18.3235C19.354 21.5 20.1895 20.6646 20.1895 19.6341C20.1895 16.5501 17.2503 14.3148 14.2783 15.1387L13.5824 15.3317C12.671 15.5843 11.7079 15.5843 10.7965 15.3317L10.1006 15.1387C7.12865 14.3148 4.18945 16.5501 4.18945 19.6341C4.18945 20.6646 5.02487 21.5 6.0554 21.5Z" stroke="#807984" stroke-linecap="round" stroke-linejoin="round"/>
</svg>
