<svg width="78" height="80" viewBox="0 0 78 80" fill="none" xmlns="http://www.w3.org/2000/svg">
<rect y="0.300781" width="78" height="79" rx="8" fill="#171718" fill-opacity="0.79"/>
<g clip-path="url(#clip0_15049_28734)">
<path d="M53.9498 51.6504C53.9498 51.9996 53.8128 52.3345 53.569 52.5814C53.3252 52.8283 52.9946 52.9671 52.6498 52.9671H25.3498C25.005 52.9671 24.6744 52.8283 24.4306 52.5814C24.1868 52.3345 24.0498 51.9996 24.0498 51.6504V33.2171C24.0498 32.8679 24.1868 32.533 24.4306 32.286C24.6744 32.0391 25.005 31.9004 25.3498 31.9004H52.6498C52.9946 31.9004 53.3252 32.0391 53.569 32.286C53.8128 32.533 53.9498 32.8679 53.9498 33.2171V51.6504Z" stroke="#828384" stroke-linecap="round" stroke-linejoin="round"/>
<path d="M33.7998 31.8995L34.4498 27.2911C34.4498 27.1165 34.5183 26.9491 34.6402 26.8256C34.7621 26.7022 34.9274 26.6328 35.0998 26.6328H42.8998C43.0722 26.6328 43.2375 26.7022 43.3594 26.8256C43.4813 26.9491 43.5498 27.1165 43.5498 27.2911L44.1998 31.8995" stroke="#828384" stroke-linecap="round" stroke-linejoin="round"/>
<path d="M29.25 37.1699H48.75" stroke="#828384" stroke-linecap="round" stroke-linejoin="round"/>
<path d="M29.25 42.4375H48.75" stroke="#828384" stroke-linecap="round" stroke-linejoin="round"/>
<path d="M29.25 47.7012H48.75" stroke="#828384" stroke-linecap="round" stroke-linejoin="round"/>
</g>
<rect x="0.5" y="0.800781" width="77" height="78" rx="7.5" stroke="white" stroke-opacity="0.3"/>
<defs>
<clipPath id="clip0_15049_28734">
<rect width="31.2" height="31.6" fill="white" transform="translate(23.4004 24)"/>
</clipPath>
</defs>
</svg>
