<svg width="53" height="64" viewBox="0 0 53 64" fill="none" xmlns="http://www.w3.org/2000/svg">
<g clip-path="url(#clip0_18973_12198)">
<g clip-path="url(#clip1_18973_12198)">
<path fill-rule="evenodd" clip-rule="evenodd" d="M12.252 18.9036C12.252 18.3513 12.6997 17.9036 13.252 17.9036H24.375C24.9273 17.9036 25.375 18.3513 25.375 18.9036V29.9036C25.375 30.4558 24.9273 30.9036 24.375 30.9036H13.252C12.6997 30.9036 12.252 30.4558 12.252 29.9036V18.9036ZM27.375 18.9036C27.375 18.3513 27.8227 17.9036 28.375 17.9036H39.0879C39.6402 17.9036 40.0879 18.3513 40.0879 18.9036V19.9036C40.0879 20.4558 39.6402 20.9036 39.0879 20.9036H28.375C27.8227 20.9036 27.375 20.4558 27.375 19.9036V18.9036ZM40.0879 23.9036C40.0879 23.3513 39.6402 22.9036 39.0879 22.9036H28.375C27.8227 22.9036 27.375 23.3513 27.375 23.9036V24.9036C27.375 25.4558 27.8227 25.9036 28.375 25.9036H39.0879C39.6402 25.9036 40.0879 25.4558 40.0879 24.9036V23.9036ZM27.375 28.9036C27.375 28.3513 27.8227 27.9036 28.375 27.9036H39.0879C39.6402 27.9036 40.0879 28.3513 40.0879 28.9036V29.9036C40.0879 30.4558 39.6402 30.9036 39.0879 30.9036H28.375C27.8227 30.9036 27.375 30.4558 27.375 29.9036V28.9036ZM40.3262 33.9036C40.3262 33.3513 39.8785 32.9036 39.3262 32.9036H13.252C12.6997 32.9036 12.252 33.3513 12.252 33.9036V34.9036C12.252 35.4558 12.6997 35.9036 13.252 35.9036H39.3262C39.8785 35.9036 40.3262 35.4558 40.3262 34.9036V33.9036ZM12.252 38.9036C12.252 38.3513 12.6997 37.9036 13.252 37.9036H39.3262C39.8785 37.9036 40.3262 38.3513 40.3262 38.9036V39.9036C40.3262 40.4558 39.8785 40.9036 39.3262 40.9036H13.252C12.6997 40.9036 12.252 40.4558 12.252 39.9036V38.9036ZM40.3262 43.9036C40.3262 43.3513 39.8785 42.9036 39.3262 42.9036H13.252C12.6997 42.9036 12.252 43.3513 12.252 43.9036V44.9036C12.252 45.4558 12.6997 45.9036 13.252 45.9036H39.3262C39.8785 45.9036 40.3262 45.4558 40.3262 44.9036V43.9036Z" fill="url(#paint0_linear_18973_12198)"/>
</g>
</g>
<defs>
<linearGradient id="paint0_linear_18973_12198" x1="24.0895" y1="18.6908" x2="41.9275" y2="50.8656" gradientUnits="userSpaceOnUse">
<stop stop-color="#99E662"/>
<stop offset="1" stop-color="#A5F1BA" stop-opacity="0"/>
</linearGradient>
<clipPath id="clip0_18973_12198">
<rect width="32" height="32" fill="white" transform="translate(10.5 16)"/>
</clipPath>
<clipPath id="clip1_18973_12198">
<rect width="32" height="32" fill="white" transform="translate(10.5 16)"/>
</clipPath>
</defs>
</svg>
