<svg width="119" height="93" style="transform: translate(-11px, 00px);" viewBox="0 0 119 93" fill="none" xmlns="http://www.w3.org/2000/svg">
<path d="M45.3596 46.9574C45.0613 46.5071 44.7138 46.0797 44.317 45.683C42.4219 43.7879 39.8293 43.0154 37.3656 43.3656C35.6703 43.6065 34.036 44.379 32.732 45.683L30.415 48C27.2158 51.1991 27.2158 56.3859 30.415 59.585C33.6141 62.7842 38.8009 62.7842 42 59.585L43.1585 58.4265M38.6404 49.0426C38.9387 49.4929 39.2862 49.9203 39.683 50.317C41.5781 52.2121 44.1707 52.9846 46.6344 52.6344C48.3297 52.3935 49.964 51.621 51.268 50.317L53.585 48C56.7842 44.8009 56.7842 39.6141 53.585 36.415C50.3859 33.2158 45.1991 33.2158 42 36.415L40.8415 37.5735" stroke="#303A47" stroke-width="4" stroke-linecap="round" stroke-linejoin="round"/>
<path d="M45.3596 46.9574C45.0613 46.5071 44.7138 46.0797 44.317 45.683C42.4219 43.7879 39.8293 43.0154 37.3656 43.3656C35.6703 43.6065 34.036 44.379 32.732 45.683L30.415 48C27.2158 51.1991 27.2158 56.3859 30.415 59.585C33.6141 62.7842 38.8009 62.7842 42 59.585L43.1585 58.4265M38.6404 49.0426C38.9387 49.4929 39.2862 49.9203 39.683 50.317C41.5781 52.2121 44.1707 52.9846 46.6344 52.6344C48.3297 52.3935 49.964 51.621 51.268 50.317L53.585 48C56.7842 44.8009 56.7842 39.6141 53.585 36.415C50.3859 33.2158 45.1991 33.2158 42 36.415L40.8415 37.5735" stroke="url(#paint0_linear_20866_12846)" stroke-width="4" stroke-linecap="round" stroke-linejoin="round"/>
<defs>
<linearGradient id="paint0_linear_20866_12846" x1="39.8087" y1="34.9473" x2="40.0615" y2="65.2732" gradientUnits="userSpaceOnUse">
<stop stop-color="#99E662"/>
<stop offset="1" stop-color="#A5F1BA" stop-opacity="0"/>
</linearGradient>
</defs>
</svg>
