<svg width="146" height="27" viewBox="0 0 146 27" fill="none" xmlns="http://www.w3.org/2000/svg">
<path d="M74.2663 8.09721C75.1029 8.09721 75.9395 8.06983 76.7731 8.09721C77.0222 8.13486 77.2764 8.07803 77.4858 7.93788C77.6952 7.79773 77.8446 7.58438 77.9047 7.33971C78.5832 5.56916 79.3011 3.81381 80.016 2.05846C80.4298 1.03933 81.0808 0.269656 82.2672 0.169264C82.8138 0.112843 83.3635 0.240926 83.8288 0.533124C84.2941 0.825322 84.6483 1.26482 84.8349 1.78162C85.5984 3.60694 86.3833 5.40792 87.0983 7.24236C87.3538 7.89643 87.7067 8.11547 88.4064 8.10026C90.1526 8.06375 91.8988 8.10026 93.645 8.10026C94.2036 8.07697 94.7602 8.18099 95.2726 8.40448C95.669 8.58156 96.0056 8.86978 96.2416 9.23425C96.4775 9.59871 96.6027 10.0238 96.6021 10.458C96.6432 10.8906 96.5583 11.3259 96.3575 11.7114C96.1566 12.0968 95.8485 12.4159 95.4704 12.6301C94.0709 13.4454 92.6655 14.2516 91.2326 15.003C90.6728 15.3072 90.5116 15.5688 90.7763 16.1803C91.6889 18.3099 92.5651 20.4729 93.4564 22.6176C93.9614 23.8345 93.7059 24.9905 92.775 25.6993C92.299 26.0424 91.7201 26.2126 91.1341 26.1816C90.5482 26.1506 89.9904 25.9204 89.5533 25.529C87.6306 23.8101 85.7171 22.0822 83.8431 20.3147C82.4802 19.0278 82.6779 17.3607 84.2751 16.3841C85.0509 15.9126 85.8814 15.5262 86.6784 15.0882C87.5333 14.6166 87.6215 14.4797 87.2504 13.5093C86.575 11.7661 85.8479 10.0412 85.1208 8.31625C84.3826 6.5457 83.6322 4.77819 82.8696 3.01372C82.7814 2.81293 82.7327 2.50871 82.4832 2.49654C82.1638 2.49654 82.1486 2.83118 82.0604 3.05022C80.6518 6.57004 79.2646 10.099 77.8378 13.6097C77.5975 14.2029 77.6735 14.5436 78.2394 14.8265C79.152 15.295 80.0647 15.7909 80.9774 16.2929C82.5806 17.1842 82.8726 19.0309 81.5432 20.2964C79.5992 22.14 77.6127 23.947 75.6109 25.7176C74.7287 26.5055 73.5118 26.4903 72.517 25.7936C72.0888 25.4926 71.7759 25.0546 71.6299 24.552C71.4839 24.0493 71.5136 23.5119 71.7139 23.0283C72.59 20.7406 73.5027 18.464 74.4519 16.1986C74.7196 15.5536 74.6161 15.2251 73.9712 14.8996C72.7087 14.2607 71.4857 13.5367 70.2688 12.8157C69.052 12.0947 68.5713 11.1303 68.8421 9.99858C69.1128 8.86689 69.995 8.20065 71.3884 8.11547C72.3467 8.05462 73.311 8.11547 74.2724 8.11547L74.2663 8.09721ZM80.0464 18.5563C79.9917 18.2733 79.7879 18.1973 79.6205 18.0969C78.8813 17.6588 78.1238 17.2481 77.3937 16.7948C76.8978 16.4906 76.6301 16.5971 76.4293 17.1325C75.8208 18.7875 75.1668 20.4333 74.531 22.0852C74.3423 22.578 74.1416 23.0709 73.9529 23.5637C73.8982 23.7037 73.8282 23.8679 73.9834 23.9805C74.1385 24.0931 74.2632 23.9349 74.3728 23.8375C76.1818 22.1846 77.9899 20.5317 79.797 18.8787C79.8847 18.7786 79.9631 18.6706 80.0312 18.5563H80.0464ZM91.4029 23.6459C91.3821 23.5581 91.3557 23.4717 91.3238 23.3873C90.4477 21.2598 89.5726 19.1302 88.6984 16.9987C88.5342 16.5971 88.2725 16.6275 87.9683 16.8009L85.6684 18.1212C85.2516 18.3616 85.2182 18.5806 85.6015 18.9244C86.6024 19.8127 87.5637 20.7497 88.5555 21.6471C89.3221 22.3408 90.11 23.0131 90.8919 23.6915C91.0044 23.7858 91.117 23.9318 91.2843 23.8497C91.3421 23.8253 91.3664 23.7037 91.3938 23.6459H91.4029ZM91.3634 10.3728H89.0179C88.5737 10.3728 88.4094 10.5523 88.592 10.9812C88.8718 11.6292 89.1669 12.2711 89.4255 12.9252C89.5868 13.3298 89.818 13.3085 90.1343 13.126C91.3786 12.408 92.6259 11.6961 93.8732 10.9782C94.0192 10.893 94.2322 10.823 94.1987 10.6101C94.1561 10.3393 93.8945 10.3789 93.712 10.3758C92.921 10.3667 92.1392 10.3728 91.3543 10.3728H91.3634ZM76.5114 10.7683C76.5631 10.4306 76.3715 10.3697 76.1524 10.3697C74.6334 10.3697 73.1123 10.3697 71.5892 10.3697C71.4188 10.3697 71.2028 10.3697 71.1754 10.607C71.1572 10.7865 71.3214 10.8565 71.4492 10.9325L75.1455 13.0256C75.328 13.126 75.5653 13.2446 75.6687 12.9921C75.9851 12.2528 76.2467 11.4893 76.5114 10.7683Z" fill="#131315"/>
<path d="M43.5247 13.2546C43.5247 9.59183 43.5247 5.92801 43.5247 2.26319C43.5247 1.2836 43.5703 1.23493 44.556 1.23797C47.5678 1.23797 50.5795 1.20146 53.5913 1.26838C55.6083 1.31402 57.321 2.12628 58.8421 3.49527C61.1724 5.59134 61.4828 11.2164 57.7196 13.5954C57.0663 14.0345 56.3476 14.3672 55.59 14.581C55.0668 14.7149 54.9998 14.8852 55.3101 15.3568C57.3271 18.3533 59.3167 21.3681 61.3154 24.3799C61.4131 24.5274 61.5014 24.6808 61.5801 24.8393C61.7231 25.1253 61.6044 25.2378 61.3063 25.2895C59.9404 25.539 59.3776 25.2895 58.5957 24.1183C56.7978 21.3986 54.9846 18.691 53.205 15.9591C53.0477 15.6591 52.8052 15.4124 52.508 15.25C52.2108 15.0876 51.8722 15.0168 51.5348 15.0465C49.892 15.1073 48.2431 15.0891 46.6003 15.0465C45.9128 15.0313 45.6603 15.2655 45.6694 15.9591C45.6968 18.6971 45.6846 21.4168 45.6694 24.1457C45.6694 24.5077 45.8276 25.0036 45.4109 25.177C44.8846 25.3763 44.3035 25.3763 43.7772 25.177C43.403 25.0431 43.5217 24.6111 43.5217 24.2978C43.5217 20.9128 43.5217 17.5269 43.5217 14.1399L43.5247 13.2546ZM45.6847 8.0829C45.6847 9.47318 45.709 10.8604 45.6847 12.2477C45.6694 12.8835 45.9159 13.0782 46.5334 13.069C48.5291 13.0417 50.5278 13.0995 52.5235 13.0447C54.0203 13.0052 55.5474 12.8561 56.74 11.8278C58.4619 10.3402 58.6018 8.38103 58.0755 6.33668C57.5492 4.29232 55.9794 3.57437 54.1206 3.29448C51.5074 2.91421 48.8698 3.18801 46.2444 3.12412C45.7425 3.12412 45.6816 3.42834 45.6816 3.82991C45.6877 5.25366 45.6887 6.67132 45.6847 8.0829Z" fill="#131315"/>
<path d="M15.7192 13.2658C15.7192 9.60301 15.7192 5.9392 15.7192 2.27437C15.7192 1.28262 15.7618 1.23395 16.7353 1.23699C19.4459 1.23699 22.1565 1.18831 24.861 1.2735C27.522 1.32731 30.0807 2.30862 32.0953 4.04797C33.7807 5.48693 34.6386 7.4248 35.0949 9.54217C35.7977 12.8095 35.6364 16.0403 34.3161 19.1312C33.0445 22.1064 30.7476 23.9743 27.6233 24.8079C26.1745 25.1755 24.6819 25.3414 23.1878 25.3007C21.0096 25.2683 18.8324 25.2683 16.6562 25.3007C15.9109 25.3007 15.701 25.0361 15.707 24.3272C15.7344 20.6462 15.7192 16.956 15.7192 13.2658ZM17.8731 13.2445C17.8731 16.3293 17.8731 19.4141 17.8731 22.4989C17.8731 23.0434 17.9309 23.4298 18.6336 23.4115C20.7358 23.375 22.8501 23.5119 24.937 23.3385C28.4021 23.0495 31.0001 21.4006 32.36 18.0603C33.1428 16.0489 33.4247 13.8772 33.1814 11.7326C32.7555 7.13276 30.3947 3.70116 25.0526 3.23875C22.9748 3.05926 20.9001 3.21136 18.8283 3.1201C18.0982 3.08968 17.8609 3.33914 17.87 4.06927C17.8913 7.11755 17.8731 10.1871 17.8731 13.2445Z" fill="#131315"/>
<path d="M104.349 13.3357C104.349 9.69726 104.349 6.0588 104.349 2.42034C104.349 1.28256 104.401 1.23389 105.566 1.23389H119.995C121.002 1.23389 121.358 1.76019 121.045 2.75498C120.92 3.14438 120.622 3.1383 120.318 3.14134H116.898C113.786 3.14134 110.671 3.15959 107.559 3.14134C106.817 3.14134 106.601 3.38776 106.61 4.10572C106.646 6.50296 106.64 8.90629 106.61 11.3066C106.61 11.9607 106.82 12.1858 107.486 12.1797C110.674 12.1523 113.874 12.1645 117.054 12.1797C117.358 12.1797 117.781 12.0489 117.939 12.4231C118.034 12.645 118.084 12.8841 118.084 13.1258C118.084 13.3675 118.034 13.6066 117.939 13.8286C117.778 14.1967 117.364 14.075 117.051 14.075C113.937 14.075 110.824 14.075 107.711 14.075C106.625 14.075 106.622 14.075 106.622 15.1732C106.622 18.2154 106.622 21.2393 106.622 24.2694C106.622 24.6253 106.765 25.1333 106.287 25.249C105.728 25.4307 105.122 25.408 104.578 25.1851C104.255 25.0238 104.365 24.5949 104.365 24.2724C104.352 20.6198 104.347 16.9742 104.349 13.3357Z" fill="#131315"/>
<path d="M137.312 14.1667C137.312 17.5283 137.312 20.8899 137.312 24.2515C137.312 24.6075 137.455 25.1125 136.974 25.2281C136.414 25.4044 135.809 25.3807 135.265 25.1611C134.96 25.0182 135.058 24.6196 135.058 24.3215C135.058 21.7214 135.058 19.1183 135.058 16.5122C135.058 12.3931 135.058 8.27292 135.058 4.15176C135.058 3.14784 135.058 3.13263 134.045 3.13263C131.79 3.13263 129.536 3.10829 127.282 3.13263C126.552 3.13263 126.369 2.82841 126.369 2.17738C126.369 1.52636 126.527 1.20996 127.264 1.20996C133.214 1.23227 139.164 1.23227 145.112 1.20996C145.857 1.20996 145.997 1.54461 146 2.18347C146.003 2.82233 145.815 3.14175 145.088 3.13263C142.782 3.09612 140.479 3.13263 138.173 3.10829C137.501 3.10829 137.3 3.34254 137.303 3.99357C137.324 7.3917 137.312 10.7685 137.312 14.1667Z" fill="#131315"/>
<path d="M3.71142 16.3181C2.75009 16.3181 1.78876 16.2968 0.827426 16.3181C0.0394988 16.3394 0.0881731 15.8192 0.085131 15.299C0.0820888 14.7788 0.0607845 14.2464 0.836543 14.292C1.24115 14.3133 1.64881 14.2707 2.05342 14.292C2.66186 14.3316 2.83832 14.0487 2.8444 13.4798C2.86874 11.9009 2.88699 11.9009 1.32331 11.8948C0.200736 11.8948 -0.267772 11.1738 0.15205 10.1273C0.199663 10.0091 0.285382 9.91017 0.395608 9.84624C0.505833 9.78231 0.634253 9.75702 0.760489 9.77438C2.73487 9.77438 4.71535 9.77438 6.68365 9.77438C7.49895 9.77438 7.38638 10.398 7.39855 10.9243C7.41072 11.4506 7.36205 11.9069 6.66235 11.8887C6.23036 11.8887 5.79837 11.9069 5.36942 11.8887C4.84008 11.8674 4.63016 12.1199 4.66058 12.6219C4.66211 12.6472 4.66211 12.6726 4.66058 12.6979C4.60886 14.2799 4.60886 14.2799 6.18168 14.2829C7.32858 14.2829 7.41681 14.3955 7.39855 15.4602C7.39855 16.0687 7.1491 16.3273 6.53154 16.309C5.58541 16.2999 4.64841 16.3181 3.71142 16.3181Z" fill="#131315"/>
<path d="M3.67214 6.61374C2.73515 6.61374 1.79816 6.61374 0.86116 6.61374C0.301397 6.61374 0.094525 6.37949 0.0975672 5.84102C0.0975672 4.47812 0.0975672 3.10305 0.0975672 1.74928C0.0975672 1.26557 0.255767 0.967431 0.788151 0.973515C1.32053 0.979599 1.80119 0.918763 1.84074 1.62759C1.8742 2.23603 1.88029 2.84447 1.92593 3.45291C1.95331 3.84535 1.75555 4.4112 2.42788 4.43858C3.1002 4.46596 2.92377 3.88185 2.95419 3.49549C2.977 3.14195 2.977 2.78731 2.95419 2.43377C2.92681 1.84663 3.2584 1.71277 3.7634 1.70973C4.26841 1.70669 4.56959 1.90139 4.5483 2.46115C4.53004 2.91748 4.5483 3.37381 4.5483 3.82709C4.56351 4.20432 4.73691 4.43553 5.15673 4.45378C5.57656 4.47204 5.68607 4.14956 5.68607 3.79667C5.68607 3.06654 5.70432 2.33337 5.68607 1.60021C5.68607 0.991767 6.02375 0.909635 6.51963 0.912677C7.01551 0.915719 7.38057 0.97656 7.37753 1.585C7.37753 3.02396 7.37753 4.46292 7.37753 5.90491C7.37753 6.41296 7.11894 6.62591 6.61698 6.61982C5.63131 6.60461 4.6426 6.61374 3.67214 6.61374Z" fill="#131315"/>
<path d="M0.0884009 22.2856C0.0884009 21.4277 0.0884009 20.5668 0.0884009 19.7089C0.0884009 19.1278 0.392633 18.9787 0.900679 18.9909C1.40873 19.0031 1.85591 18.9909 1.91372 19.6937C2.04149 21.2634 2.06279 21.2604 3.67211 21.2604C4.60606 21.2604 5.54305 21.2604 6.477 21.2604C7.29535 21.2604 7.37141 21.4003 7.38966 22.3586C7.38966 23.0005 7.23451 23.3443 6.4983 23.32C5.23579 23.2774 3.97025 23.3199 2.7047 23.2987C2.1206 23.2987 1.85592 23.4903 1.90155 24.0866C1.90155 24.3117 1.87114 24.5399 1.87114 24.765C1.87114 25.4799 1.49695 25.7233 0.803327 25.6777C0.109707 25.632 0.0762447 25.2061 0.0823291 24.692C0.0823291 23.8858 0.0823291 23.0766 0.0823291 22.2582L0.0884009 22.2856Z" fill="#131315"/>
</svg>
