<svg width="146" height="27" viewBox="0 0 146 27" fill="none" xmlns="http://www.w3.org/2000/svg">
<path d="M74.2663 7.94096C75.1029 7.94096 75.9395 7.91358 76.7731 7.94096C77.0222 7.97861 77.2764 7.92178 77.4858 7.78163C77.6952 7.64148 77.8446 7.42813 77.9047 7.18346C78.5832 5.41291 79.3011 3.65756 80.016 1.90221C80.4298 0.883078 81.0808 0.113406 82.2672 0.0130141C82.8138 -0.0434075 83.3635 0.0846761 83.8288 0.376874C84.2941 0.669072 84.6483 1.10857 84.8349 1.62537C85.5984 3.45069 86.3833 5.25167 87.0983 7.08611C87.3538 7.74018 87.7067 7.95922 88.4064 7.94401C90.1526 7.9075 91.8988 7.94401 93.645 7.94401C94.2036 7.92072 94.7602 8.02474 95.2726 8.24823C95.669 8.42531 96.0056 8.71353 96.2416 9.078C96.4775 9.44246 96.6027 9.86753 96.6021 10.3017C96.6432 10.7344 96.5583 11.1697 96.3575 11.5551C96.1566 11.9406 95.8485 12.2596 95.4704 12.4738C94.0709 13.2891 92.6655 14.0953 91.2326 14.8467C90.6728 15.151 90.5116 15.4126 90.7763 16.0241C91.6889 18.1536 92.5651 20.3166 93.4564 22.4613C93.9614 23.6782 93.7059 24.8342 92.775 25.5431C92.299 25.8862 91.7201 26.0563 91.1341 26.0253C90.5482 25.9944 89.9904 25.7641 89.5533 25.3727C87.6306 23.6539 85.7171 21.9259 83.8431 20.1584C82.4802 18.8716 82.6779 17.2044 84.2751 16.2279C85.0509 15.7564 85.8814 15.37 86.6784 14.9319C87.5333 14.4604 87.6215 14.3235 87.2504 13.353C86.575 11.6098 85.8479 9.88492 85.1208 8.16C84.3826 6.38945 83.6322 4.62194 82.8696 2.85747C82.7814 2.65668 82.7327 2.35246 82.4832 2.34029C82.1638 2.34029 82.1486 2.67493 82.0604 2.89397C80.6518 6.41379 79.2646 9.94273 77.8378 13.4534C77.5975 14.0466 77.6735 14.3874 78.2394 14.6703C79.152 15.1388 80.0647 15.6347 80.9774 16.1366C82.5806 17.028 82.8726 18.8746 81.5432 20.1402C79.5992 21.9837 77.6127 23.7908 75.6109 25.5613C74.7287 26.3493 73.5118 26.3341 72.517 25.6374C72.0888 25.3364 71.7759 24.8984 71.6299 24.3957C71.4839 23.893 71.5136 23.3556 71.7139 22.872C72.59 20.5843 73.5027 18.3077 74.4519 16.0423C74.7196 15.3974 74.6161 15.0688 73.9712 14.7433C72.7087 14.1044 71.4857 13.3804 70.2688 12.6594C69.052 11.9384 68.5713 10.974 68.8421 9.84233C69.1128 8.71064 69.995 8.0444 71.3884 7.95922C72.3467 7.89837 73.311 7.95922 74.2724 7.95922L74.2663 7.94096ZM80.0464 18.4C79.9917 18.1171 79.7879 18.041 79.6205 17.9406C78.8813 17.5026 78.1238 17.0919 77.3937 16.6386C76.8978 16.3344 76.6301 16.4409 76.4293 16.9763C75.8208 18.6312 75.1668 20.2771 74.531 21.929C74.3423 22.4218 74.1416 22.9146 73.9529 23.4075C73.8982 23.5474 73.8282 23.7117 73.9834 23.8242C74.1385 23.9368 74.2632 23.7786 74.3728 23.6813C76.1818 22.0283 77.9899 20.3754 79.797 18.7225C79.8847 18.6223 79.9631 18.5144 80.0312 18.4H80.0464ZM91.4029 23.4896C91.3821 23.4018 91.3557 23.3155 91.3238 23.231C90.4477 21.1035 89.5726 18.974 88.6984 16.8424C88.5342 16.4409 88.2725 16.4713 87.9683 16.6447L85.6684 17.965C85.2516 18.2053 85.2182 18.4244 85.6015 18.7681C86.6024 19.6564 87.5637 20.5934 88.5555 21.4909C89.3221 22.1845 90.11 22.8568 90.8919 23.5352C91.0044 23.6295 91.117 23.7756 91.2843 23.6934C91.3421 23.6691 91.3664 23.5474 91.3938 23.4896H91.4029ZM91.3634 10.2165H89.0179C88.5737 10.2165 88.4094 10.396 88.592 10.825C88.8718 11.473 89.1669 12.1149 89.4255 12.7689C89.5868 13.1735 89.818 13.1522 90.1343 12.9697C91.3786 12.2517 92.6259 11.5399 93.8732 10.8219C94.0192 10.7367 94.2322 10.6668 94.1987 10.4538C94.1561 10.1831 93.8945 10.2226 93.712 10.2196C92.921 10.2104 92.1392 10.2165 91.3543 10.2165H91.3634ZM76.5114 10.612C76.5631 10.2743 76.3715 10.2135 76.1524 10.2135C74.6334 10.2135 73.1123 10.2135 71.5892 10.2135C71.4188 10.2135 71.2028 10.2135 71.1754 10.4508C71.1572 10.6303 71.3214 10.7002 71.4492 10.7763L75.1455 12.8693C75.328 12.9697 75.5653 13.0884 75.6687 12.8358C75.9851 12.0966 76.2467 11.333 76.5114 10.612Z" fill="#F7F7F7"/>
<path d="M43.5247 13.0984C43.5247 9.43558 43.5247 5.77176 43.5247 2.10694C43.5247 1.12735 43.5703 1.07868 44.556 1.08172C47.5678 1.08172 50.5795 1.04521 53.5913 1.11213C55.6083 1.15777 57.321 1.97003 58.8421 3.33902C61.1724 5.43509 61.4828 11.0601 57.7196 13.4391C57.0663 13.8783 56.3476 14.211 55.59 14.4248C55.0668 14.5586 54.9998 14.729 55.3101 15.2005C57.3271 18.1971 59.3167 21.2119 61.3154 24.2237C61.4131 24.3712 61.5014 24.5246 61.5801 24.683C61.7231 24.969 61.6044 25.0816 61.3063 25.1333C59.9404 25.3827 59.3776 25.1333 58.5957 23.962C56.7978 21.2423 54.9846 18.5348 53.205 15.8029C53.0477 15.5029 52.8052 15.2562 52.508 15.0937C52.2108 14.9313 51.8722 14.8605 51.5348 14.8902C49.892 14.9511 48.2431 14.9328 46.6003 14.8902C45.9128 14.875 45.6603 15.1093 45.6694 15.8029C45.6968 18.5409 45.6846 21.2606 45.6694 23.9894C45.6694 24.3514 45.8276 24.8473 45.4109 25.0207C44.8846 25.2201 44.3035 25.2201 43.7772 25.0207C43.403 24.8869 43.5217 24.4549 43.5217 24.1415C43.5217 20.7566 43.5217 17.3706 43.5217 13.9836L43.5247 13.0984ZM45.6847 7.92665C45.6847 9.31693 45.709 10.7042 45.6847 12.0914C45.6694 12.7272 45.9159 12.9219 46.5334 12.9128C48.5291 12.8854 50.5278 12.9432 52.5235 12.8885C54.0203 12.8489 55.5474 12.6998 56.74 11.6716C58.4619 10.184 58.6018 8.22478 58.0755 6.18043C57.5492 4.13607 55.9794 3.41812 54.1206 3.13823C51.5074 2.75796 48.8698 3.03176 46.2444 2.96787C45.7425 2.96787 45.6816 3.27209 45.6816 3.67366C45.6877 5.09741 45.6887 6.51507 45.6847 7.92665Z" fill="#F7F7F7"/>
<path d="M15.7192 13.1096C15.7192 9.44676 15.7192 5.78295 15.7192 2.11812C15.7192 1.12637 15.7618 1.0777 16.7353 1.08074C19.4459 1.08074 22.1565 1.03206 24.861 1.11725C27.522 1.17106 30.0807 2.15237 32.0953 3.89172C33.7807 5.33068 34.6386 7.26855 35.0949 9.38592C35.7977 12.6532 35.6364 15.884 34.3161 18.9749C33.0445 21.9502 30.7476 23.8181 27.6233 24.6516C26.1745 25.0193 24.6819 25.1851 23.1878 25.1445C21.0096 25.112 18.8324 25.112 16.6562 25.1445C15.9109 25.1445 15.701 24.8798 15.707 24.171C15.7344 20.4899 15.7192 16.7997 15.7192 13.1096ZM17.8731 13.0883C17.8731 16.1731 17.8731 19.2578 17.8731 22.3426C17.8731 22.8872 17.9309 23.2735 18.6336 23.2553C20.7358 23.2188 22.8501 23.3557 24.937 23.1823C28.4021 22.8933 31.0001 21.2444 32.36 17.9041C33.1428 15.8926 33.4247 13.721 33.1814 11.5763C32.7555 6.97651 30.3947 3.54491 25.0526 3.0825C22.9748 2.90301 20.9001 3.05511 18.8283 2.96385C18.0982 2.93343 17.8609 3.18289 17.87 3.91302C17.8913 6.9613 17.8731 10.0309 17.8731 13.0883Z" fill="#F7F7F7"/>
<path d="M104.349 13.1795C104.349 9.54101 104.349 5.90255 104.349 2.26409C104.349 1.12631 104.401 1.07764 105.566 1.07764H119.995C121.002 1.07764 121.358 1.60394 121.045 2.59873C120.92 2.98813 120.622 2.98205 120.318 2.98509H116.898C113.786 2.98509 110.671 3.00334 107.559 2.98509C106.817 2.98509 106.601 3.23151 106.61 3.94947C106.646 6.34671 106.64 8.75004 106.61 11.1503C106.61 11.8044 106.82 12.0295 107.486 12.0234C110.674 11.9961 113.874 12.0082 117.054 12.0234C117.358 12.0234 117.781 11.8926 117.939 12.2668C118.034 12.4888 118.084 12.7279 118.084 12.9696C118.084 13.2112 118.034 13.4504 117.939 13.6723C117.778 14.0404 117.364 13.9187 117.051 13.9187C113.937 13.9187 110.824 13.9187 107.711 13.9187C106.625 13.9187 106.622 13.9187 106.622 15.017C106.622 18.0592 106.622 21.0831 106.622 24.1131C106.622 24.469 106.765 24.9771 106.287 25.0927C105.728 25.2744 105.122 25.2518 104.578 25.0288C104.255 24.8676 104.365 24.4386 104.365 24.1162C104.352 20.4635 104.347 16.8179 104.349 13.1795Z" fill="#F7F7F7"/>
<path d="M137.312 14.0104C137.312 17.372 137.312 20.7337 137.312 24.0953C137.312 24.4512 137.455 24.9562 136.974 25.0718C136.414 25.2481 135.809 25.2245 135.265 25.0049C134.96 24.8619 135.058 24.4634 135.058 24.1652C135.058 21.5652 135.058 18.9621 135.058 16.3559C135.058 12.2368 135.058 8.11667 135.058 3.99551C135.058 2.99159 135.058 2.97638 134.045 2.97638C131.79 2.97638 129.536 2.95204 127.282 2.97638C126.552 2.97638 126.369 2.67216 126.369 2.02113C126.369 1.37011 126.527 1.05371 127.264 1.05371C133.214 1.07602 139.164 1.07602 145.112 1.05371C145.857 1.05371 145.997 1.38836 146 2.02722C146.003 2.66608 145.815 2.9855 145.088 2.97638C142.782 2.93987 140.479 2.97638 138.173 2.95204C137.501 2.95204 137.3 3.18629 137.303 3.83732C137.324 7.23545 137.312 10.6123 137.312 14.0104Z" fill="#F7F7F7"/>
<path d="M3.71142 16.1619C2.75009 16.1619 1.78876 16.1406 0.827426 16.1619C0.0394988 16.1832 0.0881731 15.663 0.085131 15.1427C0.0820888 14.6225 0.0607845 14.0901 0.836543 14.1358C1.24115 14.1571 1.64881 14.1145 2.05342 14.1358C2.66186 14.1753 2.83832 13.8924 2.8444 13.3235C2.86874 11.7446 2.88699 11.7446 1.32331 11.7385C0.200736 11.7385 -0.267772 11.0175 0.15205 9.97102C0.199663 9.85283 0.285382 9.75392 0.395608 9.68999C0.505833 9.62606 0.634253 9.60077 0.760489 9.61813C2.73487 9.61813 4.71535 9.61813 6.68365 9.61813C7.49895 9.61813 7.38638 10.2418 7.39855 10.7681C7.41072 11.2944 7.36205 11.7507 6.66235 11.7324C6.23036 11.7324 5.79837 11.7507 5.36942 11.7324C4.84008 11.7112 4.63016 11.9637 4.66058 12.4656C4.66211 12.4909 4.66211 12.5163 4.66058 12.5417C4.60886 14.1236 4.60886 14.1236 6.18168 14.1266C7.32858 14.1266 7.41681 14.2392 7.39855 15.304C7.39855 15.9124 7.1491 16.171 6.53154 16.1528C5.58541 16.1436 4.64841 16.1619 3.71142 16.1619Z" fill="#F7F7F7"/>
<path d="M3.67214 6.45749C2.73515 6.45749 1.79816 6.45749 0.86116 6.45749C0.301397 6.45749 0.094525 6.22324 0.0975672 5.68477C0.0975672 4.32187 0.0975672 2.9468 0.0975672 1.59303C0.0975672 1.10932 0.255767 0.811181 0.788151 0.817265C1.32053 0.823349 1.80119 0.762513 1.84074 1.47134C1.8742 2.07978 1.88029 2.68822 1.92593 3.29666C1.95331 3.6891 1.75555 4.25495 2.42788 4.28233C3.1002 4.30971 2.92377 3.7256 2.95419 3.33924C2.977 2.9857 2.977 2.63106 2.95419 2.27752C2.92681 1.69038 3.2584 1.55652 3.7634 1.55348C4.26841 1.55044 4.56959 1.74514 4.5483 2.3049C4.53004 2.76123 4.5483 3.21756 4.5483 3.67084C4.56351 4.04807 4.73691 4.27928 5.15673 4.29753C5.57656 4.31579 5.68607 3.99331 5.68607 3.64042C5.68607 2.91029 5.70432 2.17712 5.68607 1.44396C5.68607 0.835517 6.02375 0.753385 6.51963 0.756427C7.01551 0.759469 7.38057 0.82031 7.37753 1.42875C7.37753 2.86771 7.37753 4.30667 7.37753 5.74866C7.37753 6.25671 7.11894 6.46966 6.61698 6.46357C5.63131 6.44836 4.6426 6.45749 3.67214 6.45749Z" fill="#F7F7F7"/>
<path d="M0.0884009 22.1293C0.0884009 21.2715 0.0884009 20.4105 0.0884009 19.5526C0.0884009 18.9716 0.392633 18.8225 0.900679 18.8347C1.40873 18.8468 1.85591 18.8347 1.91372 19.5374C2.04149 21.1072 2.06279 21.1041 3.67211 21.1041C4.60606 21.1041 5.54305 21.1041 6.477 21.1041C7.29535 21.1041 7.37141 21.2441 7.38966 22.2024C7.38966 22.8443 7.23451 23.188 6.4983 23.1637C5.23579 23.1211 3.97025 23.1637 2.7047 23.1424C2.1206 23.1424 1.85592 23.3341 1.90155 23.9303C1.90155 24.1555 1.87114 24.3836 1.87114 24.6087C1.87114 25.3237 1.49695 25.567 0.803327 25.5214C0.109707 25.4758 0.0762447 25.0499 0.0823291 24.5357C0.0823291 23.7295 0.0823291 22.9203 0.0823291 22.102L0.0884009 22.1293Z" fill="#F7F7F7"/>
</svg>
